<svg xmlns="http://www.w3.org/2000/svg" xmlns:xlink="http://www.w3.org/1999/xlink" width="165.71502685546875" height="164.18701171875" viewBox="0 0 165.71502685546875 164.18701171875" fill="none"><g opacity="1" transform="translate(0 0)  rotate(0 82.85751342773438 82.093505859375)"><g opacity="1" transform="translate(0 82.00698852539062)  rotate(0 82.85751342773438 41.09001159667969)"><path id="路径 209" fill-rule="evenodd" style="fill:#FFFFFF" transform="translate(0 0)  rotate(0 82.85751342773438 41.09001159667969)" opacity="1" d="M82.86 0C123 0 156.66 35.02 165.72 82.18L0 82.18C9.06 35.02 42.72 0 82.86 0Z" /><path  id="路径 210" style="stroke:#000000; stroke-width:0.75; stroke-opacity:1; stroke-dasharray:0 0" transform="translate(29.54583740234375 53.31219482421875)  rotate(0 53.311920166015625 14.433807373046875)" d="M0,0L0,28.87L106.62,28.87L106.62,0 " /><g opacity="1" transform="translate(8.7540283203125 6.31201171875)  rotate(0 77.79598999023438 37.93400573730469)"><path id="路径 211" fill-rule="evenodd" style="fill:#F6CB4E" transform="translate(25.320146590214563 22.568588324975394)  rotate(0 5.818628588635306 6.88162555559839)" opacity="1" d="M5.02 1.13L11.09 9.32C12 10.56 11.75 12.3 10.51 13.22C9.28 14.13 7.53 13.87 6.62 12.64L0.55 4.44C-0.37 3.2 -0.11 1.46 1.13 0.55C2.36 -0.37 4.1 -0.11 5.02 1.13Z" /><path id="路径 212" fill-rule="evenodd" style="fill:#F6CB4E" transform="translate(28.058166724893454 56.3195934038726)  rotate(0 6.881605725085933 5.818406083818161)" opacity="1" d="M1.13 6.62L9.32 0.55C10.56 -0.37 12.3 -0.11 13.22 1.13C14.13 2.36 13.87 4.1 12.64 5.02L4.44 11.09C3.2 12 1.46 11.75 0.55 10.51C-0.37 9.28 -0.11 7.53 1.13 6.62Z" /><path id="路径 213" fill-rule="evenodd" style="fill:#F6CB4E" transform="translate(81.38905767108622 45.87933803421572)  rotate(0 6.051300583297859 6.69828616377356)" opacity="1" d="M0.65 8.83L7.18 1C8.17 -0.18 9.92 -0.34 11.1 0.65C12.28 1.63 12.44 3.39 11.46 4.57L4.92 12.4C3.93 13.58 2.18 13.73 1 12.75C-0.18 11.77 -0.34 10.01 0.65 8.83Z" /><path id="路径 214" fill-rule="evenodd" style="fill:#F6CB4E" transform="translate(107.84469034469589 40.39579530674854)  rotate(0 6.160302251985627 6.604450186563554)" opacity="1" d="M7.45 12.27L0.7 4.62C-0.32 3.47 -0.21 1.72 0.94 0.7C2.09 -0.32 3.85 -0.21 4.87 0.94L11.62 8.58C12.64 9.74 12.53 11.49 11.38 12.51C10.23 13.53 8.47 13.42 7.45 12.27Z" /><path id="路径 215" fill-rule="evenodd" style="fill:#F6CB4E" transform="translate(103.6485925280598 16.715591498803576)  rotate(0 6.881404249973116 5.818622015559271)" opacity="1" d="M12.64 5.02L4.44 11.09C3.2 12.01 1.46 11.75 0.55 10.51C-0.37 9.28 -0.11 7.53 1.13 6.62L9.32 0.55C10.56 -0.37 12.3 -0.11 13.22 1.13C14.13 2.36 13.87 4.1 12.64 5.02Z" /><path id="路径 216" fill-rule="evenodd" style="fill:#F6CB4E" transform="translate(130.50110088282986 54.18308746527072)  rotate(0 7.294659554363932 5.162407599793113)" opacity="1" d="M1.48 5.08L10.51 0.32C11.87 -0.4 13.55 0.13 14.27 1.48C14.98 2.84 14.46 4.53 13.1 5.24L4.08 10C2.72 10.72 1.04 10.2 0.32 8.84C-0.4 7.48 0.13 5.8 1.48 5.08Z" /><path id="路径 217" fill-rule="evenodd" style="fill:#F6CB4E" transform="translate(49.34795514012558 7.280961838814619)  rotate(0 5.063619946804465 7.34563904081412)" opacity="1" d="M9.83 4.03L5.27 13.15C4.59 14.53 2.91 15.08 1.54 14.4C0.17 13.71 -0.39 12.04 0.29 10.67L4.86 1.54C5.54 0.17 7.21 -0.39 8.59 0.29C9.96 0.98 10.52 2.65 9.83 4.03Z" /><path id="路径 218" fill-rule="evenodd" style="fill:#F6CB4E" transform="translate(49.05033334981795 42.66208053920451)  rotate(0 6.698285816141038 6.050916897318984)" opacity="1" d="M4.57 0.65L12.4 7.18C13.58 8.17 13.73 9.92 12.75 11.1C11.77 12.28 10.01 12.44 8.83 11.46L1 4.92C-0.18 3.93 -0.34 2.18 0.65 1C1.63 -0.18 3.39 -0.34 4.57 0.65Z" /><path id="路径 219" fill-rule="evenodd" style="fill:#F6CB4E" transform="translate(66.24848937988281 25.440757751464844)  rotate(0 6.3889923095703125 6.389244079589901)" opacity="1" d="M11.96 4.75L4.75 11.96C3.66 13.05 1.9 13.05 0.81 11.96C-0.27 10.88 -0.27 9.12 0.81 8.03L8.03 0.82C9.12 -0.27 10.88 -0.27 11.96 0.82C13.05 1.9 13.05 3.66 11.96 4.75Z" /><path id="路径 220" fill-rule="evenodd" style="fill:#F6CB4E" transform="translate(79.62679471235924 7.571746803667338)  rotate(0 7.345708949750133 5.063247703168628)" opacity="1" d="M10.66 9.83L1.54 5.27C0.16 4.58 -0.39 2.91 0.29 1.54C0.98 0.16 2.65 -0.39 4.03 0.29L13.15 4.86C14.53 5.54 15.08 7.21 14.4 8.59C13.71 9.96 12.04 10.52 10.66 9.83Z" /><path id="路径 221" fill-rule="evenodd" style="fill:#F6CB4E" transform="translate(132.5420197057565 29.820804000887335)  rotate(0 4.759477207668624 3.257093727095423)" opacity="1" d="M3.16 0.03L5.51 0.35C6.91 2.34 8.24 4.39 9.52 6.51L2.41 5.54C0.88 5.33 -0.18 3.93 0.03 2.4C0.23 0.88 1.64 -0.18 3.16 0.03Z" /><path id="路径 222" fill-rule="evenodd" style="fill:#F6CB4E" transform="translate(100.24216995591291 0)  rotate(0 4.117409895090418 3.085950901280114)" opacity="1" d="M1.13 1.15L2.68 0C4.57 0.86 6.42 1.8 8.23 2.81L4.44 5.63C3.2 6.54 1.46 6.28 0.55 5.05C-0.37 3.81 -0.11 2.07 1.13 1.15Z" /><path id="路径 223" fill-rule="evenodd" style="fill:#F6CB4E" transform="translate(147.28408039507497 68.57309098748681)  rotate(0 4.153949792696892 3.6474602435612837)" opacity="1" d="M2.02 7.29L0.32 4.08C-0.4 2.72 0.13 1.04 1.48 0.32C2.84 -0.4 4.53 0.13 5.24 1.48L8.31 7.29L2.02 7.29Z" /><path id="路径 224" fill-rule="evenodd" style="fill:#F6CB4E" transform="translate(98.9530029296875 65.64807829777413)  rotate(0 6.032822048958906 5.10996658841762)" opacity="1" d="M7.15 1C8.13 -0.18 9.89 -0.34 11.07 0.65C12.25 1.63 12.4 3.38 11.42 4.56L6.7 10.22L0 10.22C0.07 9.72 0.27 9.24 0.61 8.83L7.15 1Z" /><path id="路径 225" fill-rule="evenodd" style="fill:#F6CB4E" transform="translate(60.56731962013362 65.74170580468189)  rotate(0 6.149842387198817 5.063152834963745)" opacity="1" d="M0.7 4.62C-0.32 3.47 -0.21 1.72 0.94 0.7C2.09 -0.32 3.85 -0.21 4.87 0.94L11.62 8.58C12.02 9.03 12.24 9.57 12.3 10.13L5.56 10.13L0.7 4.62Z" /><path id="路径 226" fill-rule="evenodd" style="fill:#F6CB4E" transform="translate(4.93096923828125 65.86278393178992)  rotate(0 4.203057261964034 5.002613771409727)" opacity="1" d="M3.01 1.82C3.54 0.38 5.14 -0.36 6.59 0.17C8.03 0.7 8.77 2.3 8.23 3.74L5.93 10.01L0 10.01L3.01 1.82Z" /><path id="路径 227" fill-rule="evenodd" style="fill:#F6CB4E" transform="translate(32.39398193359375 4.25299072265625)  rotate(0 4.0954617683937045 3.4274601857642892)" opacity="1" d="M4.87 0L7.19 1.94C8.37 2.92 8.53 4.68 7.54 5.86C6.56 7.04 4.8 7.19 3.63 6.21L0 3.18C1.59 2.05 3.22 1 4.87 0Z" /><path id="路径 228" fill-rule="evenodd" style="fill:#F6CB4E" transform="translate(0 43.08099365234375)  rotate(0 5.680014686061384 4.4911248430339015)" opacity="1" d="M2.4 0L9.82 3.71C11.2 4.4 11.75 6.07 11.07 7.44C10.38 8.82 8.71 9.38 7.33 8.69L0 5.02C0.77 3.32 1.56 1.64 2.4 0Z" /></g><path  id="路径 229" style="stroke:#000000; stroke-width:0.75; stroke-opacity:1; stroke-dasharray:0 0" transform="translate(0 0)  rotate(0 82.85751342773438 41.09001159667969)" d="M82.86,0C42.72,0 9.06,35.02 0,82.18L165.72,82.18C156.66,35.02 123,0 82.86,0Z " /></g><g opacity="1" transform="translate(49.33905029296875 0)  rotate(0 33.684478759765625 43.87845420837402)"><path id="矩形 28" fill-rule="evenodd" style="fill:#5A87FE" transform="translate(28.619286124030054 28.718449869263395)  rotate(-30.00168042194448 19.051359176635742 22.076570510864258)" opacity="1" d="M17.6,44.15L20.5,44.15C30.22,44.15 38.1,36.28 38.1,26.56L38.1,17.6C38.1,7.88 30.23,0 20.51,0L17.6,0C12.93,0 8.46,1.85 5.15,5.15C1.85,8.46 0,12.93 0,17.6L0,26.56C0,36.28 7.88,44.15 17.6,44.15Z " /><g opacity="1" transform="translate(22.33148193359375 62.164703369140625)  rotate(0 10.615174293518066 12.253899574279785)"><path id="矩形 29" fill-rule="evenodd" style="fill:#FFFFFF" transform="translate(0 0)  rotate(0 10.615174293518066 12.253899574279785)" opacity="1" d="M8.11,24.51L13.12,24.51C15.27,24.51 17.34,23.65 18.86,22.13C20.38,20.61 21.23,18.54 21.23,16.39L21.23,8.11C21.23,3.63 17.6,0 13.12,0L8.11,0C3.63,0 0,3.63 0,8.11L0,16.39C0,18.54 0.85,20.61 2.37,22.13C3.89,23.65 5.96,24.51 8.11,24.51Z " /><rect  id="矩形 29" style="stroke:#000000; stroke-width:0.75; stroke-opacity:1; stroke-dasharray:0 0" transform="translate(0 0)  rotate(0 10.615174293518066 12.253899574279785)" x="0.375" y="0.375" rx="0"  width="21.230348587036133" height="23.75779914855957" /></g><g opacity="1" transform="translate(0 29.360992431640625)  rotate(0 33.684478759765625 19.75599670410159)"><path id="路径 230" fill-rule="evenodd" style="fill:#000000" transform="translate(0 0)  rotate(0 13.82647705078125 19.75599670410159)" opacity="1" d="M4.96 26.61C4.96 25.56 5.17 24.55 5.54 23.63C3.52 22.19 2.2 19.83 2.2 17.16C2.2 16.05 2.43 15 2.84 14.04C1.1 12.58 0 10.4 0 7.96C0 3.56 3.56 0 7.95 0C12.35 0 15.91 3.56 15.91 7.96C15.91 9.06 15.68 10.12 15.27 11.07C17.01 12.53 18.11 14.71 18.11 17.16C18.11 18.21 17.9 19.22 17.53 20.14C18.75 21.01 19.71 22.22 20.28 23.63C24.4 23.93 27.65 27.36 27.65 31.56C27.65 35.95 24.09 39.51 19.7 39.51C16.36 39.51 13.51 37.45 12.33 34.54C8.21 34.24 4.96 30.81 4.96 26.61Z" /><path id="路径 231" fill-rule="evenodd" style="fill:#000000" transform="translate(39.7159423828125 0)  rotate(0 13.826507568359375 19.75599670410159)" opacity="1" d="M7.96 39.51C3.56 39.51 0 35.95 0 31.56C0 27.36 3.25 23.93 7.37 23.63C7.94 22.22 8.9 21.01 10.13 20.14C9.75 19.22 9.54 18.21 9.54 17.16C9.54 14.71 10.65 12.53 12.38 11.07C11.97 10.12 11.74 9.06 11.74 7.96C11.74 3.56 15.31 0 19.7 0C24.09 0 27.65 3.56 27.65 7.96C27.65 10.4 26.55 12.58 24.82 14.04C25.23 15 25.45 16.05 25.45 17.16C25.45 19.83 24.13 22.19 22.11 23.63C22.48 24.55 22.69 25.56 22.69 26.61C22.69 30.81 19.44 34.24 15.33 34.54C14.15 37.45 11.29 39.51 7.96 39.51Z" /></g><g opacity="1" transform="translate(0.4144904694209117 17.8974913647545)  rotate(0 31.98400601624411 26.65647892699775)"><g opacity="1" transform="translate(0 0)  rotate(0 31.98400601624411 26.65647892699775)"><g opacity="1" transform="translate(0 0)  rotate(0 31.98400601624411 26.65647892699775)"><g opacity="1" transform="translate(0 0)  rotate(0 31.98400601624411 26.65647892699775)"><g opacity="1" transform="translate(0 27.306771053117245)  rotate(0 31.98400601624411 6.904643180605348)"><g opacity="1" transform="translate(0 0)  rotate(0 6.508999339861248 6.456201017604428)"><path id="路径 232" fill-rule="evenodd" style="fill:#FFFFFF" transform="translate(0 0)  rotate(0 6.508999339861248 6.456201017604428)" opacity="1" d="M6.82 0.01C10.41 0.18 13.18 3.21 13.01 6.77C12.84 10.33 9.79 13.08 6.2 12.9C2.61 12.73 -0.16 9.7 0.01 6.14C0.18 2.58 3.23 -0.17 6.82 0.01Z" /><path  id="路径 232" style="stroke:#000000; stroke-width:0.75; stroke-opacity:1; stroke-dasharray:0 0" transform="translate(0 0)  rotate(0 6.508999339861248 6.456201017604428)" d="M0.01,6.14Z M13.01,6.77C13.18,3.21 10.41,0.18 6.82,0.01C3.23,-0.17 0.18,2.58 0.01,6.14C-0.16,9.7 2.61,12.73 6.2,12.9C9.79,13.08 12.84,10.33 13.01,6.77Z " /><path  id="路径 233" style="stroke:#000000; stroke-width:1; stroke-opacity:1; stroke-dasharray:0 0" transform="translate(6.680480233704088 2.889731722753254)  rotate(0 1.714098091633275 1.8695068359375)" d="M3.42,3.74C3.52,1.77 1.99,0.1 0,0 " /></g><g opacity="1" transform="translate(50.94995527133801 0.8971788471332047)  rotate(0 6.509028380575103 6.456053757038745)"><path id="路径 234" fill-rule="evenodd" style="fill:#FFFFFF" transform="translate(0 0)  rotate(0 6.509028380575103 6.456053757038745)" opacity="1" d="M0 6.54C-0.05 2.97 2.83 0.05 6.43 0C10.02 -0.05 12.97 2.81 13.02 6.37C13.06 9.94 10.19 12.86 6.59 12.91C3 12.96 0.05 10.1 0 6.54Z" /><path  id="路径 234" style="stroke:#000000; stroke-width:0.75; stroke-opacity:1; stroke-dasharray:0 0" transform="translate(0 0)  rotate(0 6.509028380575103 6.456053757038745)" d="M13.02,6.37Z M6.43,0C2.83,0.05 -0.05,2.97 0,6.54C0.05,10.1 3,12.96 6.59,12.91C10.19,12.86 13.06,9.94 13.02,6.37C12.97,2.81 10.02,-0.05 6.43,0Z " /><path  id="路径 235" style="stroke:#000000; stroke-width:1; stroke-opacity:1; stroke-dasharray:0 0" transform="translate(2.909249877454158 2.885558246713856)  rotate(0 1.7771231381590837 1.807998657226534)" d="M0,3.62C-0.02,1.64 1.57,0.02 3.55,0 " /></g></g><path id="矩形 30" fill-rule="evenodd" style="fill:#FFFFFF" transform="translate(4.92118017820917 6.091142699580757)  rotate(-88.41342795620835 27.23632049560547 20.565336227416992)" opacity="1" d="M17.69,41.13L36.78,41.13C46.55,41.13 54.47,33.21 54.47,23.44L54.47,17.69C54.47,7.92 46.55,0 36.78,0L17.69,0C7.92,0 0,7.92 0,17.69L0,23.44C0,33.21 7.92,41.13 17.69,41.13Z " /><rect  id="矩形 30" style="stroke:#000000; stroke-width:0.75; stroke-opacity:1; stroke-dasharray:0 0" transform="translate(4.92118017820917 6.091142699580757)  rotate(-88.41342795620835 27.23632049560547 20.565336227416992)" x="0.375" y="0.375" rx="0"  width="54.47264099121094" height="40.380672454833984" /></g><g opacity="1" transform="translate(15.344481698547838 20.469240068515376)  rotate(0 16.162994384765625 11.275665064410589)"><path  id="路径 236" style="stroke:#000000; stroke-width:0.75; stroke-opacity:1; stroke-dasharray:0 0" transform="translate(12.01800537109375 17.76525709212075)  rotate(0 5.2344970703125 2.3930365183502147)" d="M10.47,0.29C10.07,2.89 7.81,4.86 5.11,4.78C2.4,4.71 0.26,2.62 0,0 " /><g opacity="1" transform="translate(1.1197533957447376 2.9419907163684798)  rotate(0 14.988299602607242 2.604325842795248)"><path id="路径 237" fill-rule="evenodd" style="fill:#000000" transform="translate(0 0)  rotate(0 2.3823108431800506 2.382775653096047)" opacity="1" d="M0 2.24C0.08 0.93 1.21 -0.07 2.52 0C3.84 0.08 4.84 1.21 4.76 2.53C4.68 3.84 3.55 4.84 2.24 4.76C0.93 4.68 -0.07 3.55 0 2.24Z" /><path id="路径 238" fill-rule="evenodd" style="fill:#000000" transform="translate(25.211874940119174 0.444000244140625)  rotate(0 2.382362132547655 2.3823257207249355)" opacity="1" d="M0 2.24C0.08 0.93 1.21 -0.07 2.52 0C3.84 0.08 4.84 1.21 4.76 2.52C4.68 3.84 3.55 4.84 2.24 4.76C0.93 4.68 -0.07 3.55 0 2.24Z" /></g><g opacity="1" transform="translate(0 0)  rotate(0 16.162994384765625 0.8766318419588117)"><path  id="路径 239" style="stroke:#000000; stroke-width:1; stroke-opacity:1; stroke-dasharray:0 0" transform="translate(26.4229736328125 0.41865594269722806)  rotate(0 2.951507568359375 0.6673038706101977)" d="M0,0.12C0,0.12 3.39,-0.57 5.9,1.33 " /><path  id="路径 240" style="stroke:#000000; stroke-width:1; stroke-opacity:1; stroke-dasharray:0 0" transform="translate(0 0)  rotate(0 2.97100830078125 0.5921317198884992)" d="M5.94,0.18C5.94,0.18 2.58,-0.63 0,1.18 " /></g><path  id="路径 241" style="stroke:#000000; stroke-width:0.75; stroke-opacity:1; stroke-dasharray:0 0" transform="translate(14.49517822265625 1.9797651487614303)  rotate(0 2.072601318359375 4.718307495117159)" d="M4.15,9.44L0,9.36L2.23,0 " /></g></g></g></g><path id="路径 242" fill-rule="evenodd" style="fill:#000000" transform="translate(6.553515638280942 7.640984077714052)  rotate(0 27.84558037968219 17.303181946130934)" opacity="1" d="M23.15 29.68C18.07 30.41 13.48 28.06 13.48 28.06C13.48 28.06 6.38 33.15 2.53 29.55C-1.32 25.96 0.37 18.98 0.37 18.98C0.37 18.98 4.75 7.65 14.62 4.08C15.3178 3.82717 15.9978 3.57648 16.6636 3.33104C25.4255 0.101156 31.722 -2.2199 43.46 3.44C56.08 9.54 54.4 19.71 54.4 19.71C54.4 19.71 59.45 34.77 49.59 34.61C42.2 34.48 42.83 27.04 42.83 27.04C42.83 27.04 40.19 28.55 37.28 27.96C33.638 27.2236 32.5075 23.7578 32.1245 22.5833C32.029 22.2905 31.9799 22.1402 31.95 22.21C31.8 22.56 30.52 28.61 23.15 29.68Z" /><g opacity="1" transform="translate(5.32196044921875 0)  rotate(0 28.82550048828125 16.536943435668945)"><path id="路径 243" fill-rule="evenodd" style="fill:#5A87FE" transform="translate(0 0)  rotate(0 28.82550048828125 16.02099609375)" opacity="1" d="M57.65 23.6L57.65 32.04L38.92 32.04L38.92 27.37C38.92 21.79 34.4 17.28 28.83 17.28C23.25 17.28 18.73 21.79 18.73 27.37L18.73 32.04L0 32.04L0 23.6C0 10.56 10.56 0 23.6 0L34.06 0C47.09 0 57.65 10.56 57.65 23.6Z" /><path id="路径 244" fill-rule="evenodd" style="fill:#5A87FE" transform="translate(18.7340087890625 27.346984863281307)  rotate(0 10.09149169921875 2.3475036621093466)" opacity="1" d="M20.18 0.02L20.18 4.7L0 4.7L0 0L20.18 0L20.18 0.02Z" /><path id="矩形 31" fill-rule="evenodd" style="fill:#F6CB4E" transform="translate(32.50811767578125 26.620086669921875)  rotate(0 1.9753999710083008 3.226900100708008)" opacity="1" d="M0,6.45L3.95,6.45L3.95,0L0,0L0,6.45Z " /><path  id="路径 245" style="stroke:#000000; stroke-width:0.75; stroke-opacity:1; stroke-dasharray:0 0" transform="translate(18.7340087890625 17.2760009765625)  rotate(0 10.09149169921875 7.38299560546875)" d="M0,14.77L0,10.09C0,4.52 4.52,0 10.09,0C15.66,0 20.18,4.52 20.18,10.09L20.18,14.77 " /></g><path id="矩形 32" fill-rule="evenodd" style="fill:#F6CB4E" transform="translate(15.16375732421875 75.00640869140625)  rotate(0 17.847549438476562 6.375249862670898)" opacity="1" d="M4.8,12.75L30.9,12.75C32.17,12.75 33.39,12.24 34.29,11.34C35.19,10.44 35.7,9.22 35.7,7.95L35.7,4.8C35.7,3.53 35.19,2.31 34.29,1.41C33.39,0.51 32.17,0 30.9,0L4.8,0C3.53,0 2.31,0.51 1.41,1.41C0.51,2.31 0,3.53 0,4.8L0,7.95C0,9.22 0.51,10.44 1.41,11.34C2.31,12.24 3.53,12.75 4.8,12.75Z " /></g></g></svg>