<svg xmlns="http://www.w3.org/2000/svg" xmlns:xlink="http://www.w3.org/1999/xlink" width="786.3130671245251" height="831.131227776562" viewBox="0 0 786.3130671245251 831.131227776562" fill="none"><g opacity="1" transform="translate(0 0)  rotate(0 393.15653356226255 415.565613888281)"><g opacity="1" transform="translate(3.1100000000001273 9.830000000000041)  rotate(0 329.2856893470723 409.2059275260159)"><path id="分组 1" fill-rule="evenodd" style="fill:#000000" transform="translate(216.7297767584571 772.3799998888283)  rotate(0 30.791616383160203 23.015927581601773)" opacity="1" d="M44.9 0C38.4 0.93 31.86 1.5 25.29 1.71C18.7 2.02 12.1 1.78 5.51 1.85C-2.49 15.85 -2.17 33.93 9.02 46.02C15.6 46.16 22.49 45.02 28.85 44.71C35.89 44.36 42.93 44.07 49.97 43.85C53.84 43.74 57.71 43.63 61.58 43.57C51.32 37.52 43.02 28.52 42.19 15.95C41.86 10.5 42.78 5.04 44.9 0Z M28.2007 34.9271C28.8407 34.8271 29.3907 34.4371 29.6807 33.8571C31.0507 27.9171 32.5307 22.0471 36.2607 17.0971C37.4207 15.5171 34.8207 14.0571 33.6307 15.5771C30.4607 19.7871 28.8307 24.6971 27.5607 29.6971C25.5607 25.0771 24.1807 20.1971 23.4607 15.2071C23.4607 15.1371 23.4607 15.0871 23.4607 15.0271C23.6507 14.3771 23.3707 13.6771 22.7907 13.3271C22.2107 12.9771 21.4707 13.0571 20.9707 13.5171C17.3107 17.2871 15.6307 21.9871 14.5007 26.9271C13.1607 23.2271 12.5607 19.2971 12.7407 15.3571C13.4407 13.8571 11.0207 12.5771 10.0207 14.0871C7.40066 17.8971 4.48066 21.3071 3.90066 26.0371C3.67066 27.9571 6.67066 27.9371 6.90066 26.0371C7.32066 23.6371 8.33066 21.3671 9.83066 19.4471C10.2207 24.0571 11.5507 28.5271 13.7607 32.5771C14.5307 33.9971 16.4507 33.1771 16.5307 31.8771C16.5607 31.8171 16.5807 31.7571 16.5907 31.6871C17.4607 26.9871 18.4007 22.2771 20.9907 18.2771C22.0407 23.8771 23.8807 29.2871 26.4707 34.3471C26.9207 34.8071 27.5707 35.0271 28.2007 34.9271Z " /><path id="路径 5" fill-rule="evenodd" style="fill:#1071FE" transform="translate(92.84300952477724 708.8999998888279)  rotate(0 29.560000000000116 12.000000000000284)" opacity="1" d="M59.12,0L0,0C1.23,8 2.46,16 3.68,24L54.71,23C54.66,15.12 56.16,7.3 59.12,0Z " /><path id="路径 6" fill-rule="evenodd" style="fill:#000000" transform="translate(362.09300952477724 788.9099998888283)  rotate(0 31.956505204136874 9.439999999999998)" opacity="1" d="M63.91,0C47,4.4 30.03,8.52 13,12.37C8.67,13.37 4.34,14.3 0,15.26L5.7,15.75C23.36,17.26 41.15,18.75 58.9,18.88C58.69,18.45 58.72,17.94 58.99,17.54C62.29,12.29 63.99,6.2 63.91,0Z " /><path id="路径 7" fill-rule="evenodd" style="fill:#000000" transform="translate(123.23300952477734 771.6455115048531)  rotate(0 38.47000000000003 17.89224419198763)" opacity="1" d="M0,2.95L2,29.34C2.18,31.77 1.72,33.65 4.43,34.34C7.69,35.15 12.06,34.49 15.43,34.56L76.94,35.78C74.26,31.13 73.04,25.78 73.45,20.42C66.29,14.82 58.27,10.27 49.34,8.23C44.11,7.04 34.98,9.23 32.91,2.7C32.65,1.87 32.41,1.03 32.18,0.19C21.5,-0.65 10.69,1.41 0.18,2.95L0,2.95Z " /><path id="分组 2" fill-rule="evenodd" style="fill:#000000" transform="translate(376.7530095247773 569.0399998888282)  rotate(0 11 5.766488099023661)" opacity="1" d="M0 0C0.06 3.65 0 7.31 0 11C7.32 11.71 14.68 11.71 22 11L22 0C14.69 0.75 7.31 0.75 0 0Z M8.23928 4.84569C7.80928 4.18569 6.94928 3.95569 6.23928 4.30569C5.93928 4.44569 5.64928 4.64569 5.33928 4.82569C5.33928 4.58569 5.33928 4.34569 5.33928 4.10569C5.39928 2.17569 2.39928 2.17569 2.33928 4.10569C2.29928 5.36569 2.16928 7.57569 3.71928 8.10569C4.67928 8.32569 5.68928 8.11569 6.47928 7.52569C6.75928 7.88569 7.16928 8.10569 7.61928 8.12569C8.41928 8.15569 9.19928 7.92569 9.85928 7.48569C10.6893 8.69569 12.1993 9.23569 13.5993 8.80569C14.4893 8.48569 15.2793 7.91569 15.8693 7.17569C16.5693 6.39569 17.0693 4.77569 17.9293 4.28569C18.5493 3.81569 18.7093 2.95569 18.2893 2.29569C17.8793 1.63569 17.0293 1.40569 16.3393 1.75569C15.0693 2.45569 12.7993 7.42569 11.5993 4.75569C11.1793 4.07569 10.3093 3.84569 9.59929 4.21569C9.15928 4.44569 8.74928 4.69569 8.34929 4.98569L8.23928 4.84569Z " /><path id="路径 10" fill-rule="evenodd" style="fill:#000000" transform="translate(0 711.7299998888283)  rotate(0 36.009172940227984 39.86952067832425)" opacity="1" d="M18.62,0L6.75,16.7C3.04,21.91 -3.25,28.31 2.01,34.75C4.49,37.75 8.73,39.86 11.89,42.04L43.99,64.23C44.07,64.27 44.14,64.32 44.2,64.38L52.06,69.81C56.24,72.7 60.34,76 64.72,78.57C64.99,78.72 65.22,78.96 65.5,79.1C67.93,80.34 70.25,79.78 71.5,77.38C72.39,75.6 71.93,74.19 71.58,72.33C70.43,66.31 68.88,60.38 66.94,54.57C64.74,47.77 61.84,41.22 58.28,35.02C56.19,31.44 52.79,28.02 50.87,24.09C50.62,24.03 50.38,23.91 50.19,23.73C40.67,14.57 30.07,6.6 18.62,0Z " /><path id="路径 11" fill-rule="evenodd" style="fill:#1071FE" transform="translate(299.83300952477725 132.33871465131668)  rotate(0 8.370000000000005 8.079414380359736)" opacity="1" d="M0,8.08C0,18.9 16.16,18.8 16.74,8.08C16.16,-2.65 0,-2.74 0,8.08Z " /><path id="路径 12" fill-rule="evenodd" style="fill:#1071FE" transform="translate(332.35300952477724 132.33871465131668)  rotate(0 8.370000000000005 8.079414380359736)" opacity="1" d="M0,8.08C0,18.9 16.16,18.8 16.74,8.08C16.16,-2.65 0,-2.74 0,8.08Z " /><path id="路径 13" fill-rule="evenodd" style="fill:#1071FE" transform="translate(362.5430095247773 132.33871465131668)  rotate(0 8.375 8.079414380359736)" opacity="1" d="M0,8.08C0,18.9 16.21,18.8 16.75,8.08C16.17,-2.65 0,-2.74 0,8.08Z " /><path id="路径 14" fill-rule="evenodd" style="fill:#1071FE" transform="translate(64.45300952477726 243.89999988882838)  rotate(0 39.14999999999998 3.5)" opacity="1" d="M0.68,0C0.54,2.38 0.32,4.71 0,7L78.3,7C78.15,4.67 78.08,2.33 78.09,0L0.68,0Z " /><path id="路径 15" fill-rule="evenodd" style="fill:#000000" transform="translate(29.433009524777162 148.72999988882836)  rotate(0 69.3367740847836 46.085000000000036)" opacity="1" d="M32.32,48.67C32.31,48.78 32.28,48.89 32.25,48.99C32.32,49.17 32.34,49.36 32.32,49.55C35.27,63.55 36.45,77.87 35.83,92.17L113.17,92.17C113.3,88.51 113.63,84.86 114.17,81.24C114.44,79.42 114.84,77.61 115.36,75.84C115.3,75.44 115.42,75.04 115.69,74.74C116.39,72.61 117.32,70.56 118.47,68.64C121.15,64.21 124.92,60.53 126.82,55.64C131.2,44.39 125.92,32.55 121.25,22.34C120.45,20.59 123.04,19.07 123.84,20.82C127.84,29.6 132.04,38.82 131.36,48.74C131.36,48.87 131.36,49.01 131.36,49.14C133.7,48.1 135.88,46.76 137.86,45.14C138.57,44.48 138.61,44.48 138.67,44.32C138.73,44.16 138.01,40.37 137.95,39.69C137.56,35.69 136.95,31.64 136.22,27.69C134.66,18.77 132.21,10.04 128.89,1.62C123.6,6.04 116.08,7.75 109.52,8.99C89.6,12.72 68.6,12.22 48.52,10.22C39.22,9.41 29.99,7.89 20.92,5.67C16.03,4.41 10.69,2.92 6.43,0C5.04,5.11 4.23,10.39 3.32,15.59C2.21,21.98 0.85,28.37 0,34.81C0.37,34.95 0.68,35.21 0.88,35.56L29.6,46.56L31.32,33.67C31.57,31.78 34.57,31.76 34.32,33.67C33.65,38.67 32.99,43.67 32.32,48.67Z " /><path id="路径 16" fill-rule="evenodd" style="fill:#1071FE" transform="translate(19.243009524777335 663.8999998888283)  rotate(0 34.045000000000016 27.735000000000014)" opacity="1" d="M0,16.13L54.69,55.47L68.09,38.72L10.51,0L0,16.13Z " /><path id="路径 17" fill-rule="evenodd" style="fill:#1071FE" transform="translate(31.423009524777285 598.0399998888284)  rotate(0 28.495000000000005 50.829999999999984)" opacity="1" d="M54.99,88.55C50.44,59.03 45.87,29.51 41.27,0L36.14,7.86L0,63.36L56.99,101.66C56.32,97.29 55.66,92.92 54.99,88.55Z " /><path id="路径 18" fill-rule="evenodd" style="fill:#1071FE" transform="translate(355.4917314033439 23.135312190428266)  rotate(0 3.750639060716594 3.62485162921611)" opacity="1" d="M0.64,1.48C0.21,2.12 -0.02,2.87 0,3.63C0,8.47 7.24,8.43 7.5,3.63C7.42,2.14 6.48,0.83 5.09,0.28C3.71,-0.28 2.12,0.02 1.03,1.03C0.94,1.21 0.8,1.37 0.64,1.48Z " /><path id="路径 19" fill-rule="evenodd" style="fill:#000000" transform="translate(489.96716794697545 304.63999988882836)  rotate(0 60.902920788901156 126.14499999999998)" opacity="1" d="M74.21,0C71.99,6.16 70.03,14.51 65.65,19.32C59.88,25.65 49.95,25.12 42.3,23.51C33.81,21.73 25.39,19.09 17,16.91L12,15.6C9.4,28.84 7.37,42.21 5.59,55.6C-3.1,120.7 0.18,186.86 3.26,252.29L83.65,252.29C86.98,238.6 90.22,224.89 93.36,211.18C99.03,186.8 104.58,162.4 109.81,137.93C114.95,113.93 121.66,88.78 121.81,64.1C121.79,54.2 120.47,44.26 116.01,35.39C113.1,29.59 109.7,24.28 107.22,18.25C104.94,12.79 103.2,7.12 102.04,1.32C92.92,2.92 83.22,1.92 74.21,0Z " /><path id="路径 20" fill-rule="evenodd" style="fill:#1071FE" transform="translate(410.6730095247774 0)  rotate(0 1.3800000000001091 1.3799998888283653)" opacity="1" d="M1.38,0C0.62,0 0,0.62 0,1.38C0,2.14 0.62,2.76 1.38,2.76C2.14,2.76 2.76,2.14 2.76,1.38C2.76,0.62 2.14,0 1.38,0Z " /><path id="路径 21" fill-rule="evenodd" style="fill:#1071FE" transform="translate(398.8730095247772 0)  rotate(0 1.3800000000001091 1.3799998888283653)" opacity="1" d="M1.38,0C0.62,0 0,0.62 0,1.38C0,2.14 0.62,2.76 1.38,2.76C2.14,2.76 2.76,2.14 2.76,1.38C2.76,0.62 2.14,0 1.38,0Z " /><path id="路径 22" fill-rule="evenodd" style="fill:#1071FE" transform="translate(398.83300952477725 32.292484296447554)  rotate(0 3.7450000000000045 3.611265576206435)" opacity="1" d="M7.49,3.61C7.23,-1.18 0,-1.22 0,3.61C0,8.45 7.23,8.41 7.49,3.61Z " /><path id="路径 23" fill-rule="evenodd" style="fill:#1071FE" transform="translate(387.3930095247772 0)  rotate(0 1.3800000000001091 1.3799998888283653)" opacity="1" d="M1.38,0C0.62,0 0,0.62 0,1.38C0,2.14 0.62,2.76 1.38,2.76C2.14,2.76 2.76,2.14 2.76,1.38C2.76,0.62 2.14,0 1.38,0Z " /><path id="路径 24" fill-rule="evenodd" style="fill:#000000" transform="translate(538.0091220587503 770.2699998888282)  rotate(0 45.10257405055165 15.511952044961447)" opacity="1" d="M1.9,23.54C-1.62,26.36 0.1,30.14 4.13,30.67C7.31,31.09 10.83,30.67 14.03,30.67L73.94,30.67C78.21,30.67 91.2,33.15 90.14,24.98C89.53,20.23 87.42,15.26 86.14,10.67C85.15,7.11 84.15,3.55 83.14,0C83.23,0.56 82.98,1.12 82.5,1.43C71.15,8.43 49.07,18.04 37.68,5.19C37.17,4.62 37.17,3.76 37.68,3.19L37.44,3.33L23.07,11.5L5.9,21.28C4.51,21.93 3.18,22.69 1.9,23.54Z " /><path id="路径 25" fill-rule="evenodd" style="fill:#1071FE" transform="translate(36.16427546163186 253.84999988882842)  rotate(0 88.24342432650843 226.01499999999996)" opacity="1" d="M8.24,147.62C8.45,147.88 8.57,148.21 8.56,148.55L8.56,149.55C13.56,179.7 18.39,209.88 23.17,240.07C28.98,276.74 34.73,313.4 40.42,350.07C45.16,380.56 49.88,411.06 54.58,441.57C55.12,445.06 55.66,448.55 56.19,452.03L117.13,452.03C119.57,447.02 123.53,442.91 128.44,440.27L128.44,440.21C127.39,435.66 127.64,430.41 127.26,425.77C126.44,415.67 125.62,405.56 124.79,395.45C122.31,364.99 119.83,334.52 117.34,304.05C114.46,268.66 111.58,233.26 108.69,197.87C106.31,168.61 103.93,139.35 101.54,110.09C100.55,97.9 99.55,85.72 98.54,73.53C98.38,71.6 101.38,71.62 101.54,73.53C101.54,73.74 101.54,73.97 101.54,74.18C102.54,78.72 102.34,83.98 102.72,88.61C103.54,98.72 104.36,108.83 105.19,118.93C107.67,149.4 110.15,179.87 112.64,210.33C115.52,245.72 118.4,281.12 121.29,316.51L124.62,357.42C137.62,341.79 150.39,325.94 162.69,309.77C168.81,301.77 175.69,292.33 176.43,281.87C176.81,276.1 175.23,270.23 174.49,264.53C172.67,250.53 167.89,235.53 164.34,221.53C157.56,194.82 150.56,168.16 143.54,141.53C133.63,103.96 123.63,66.42 113.54,28.9C109.92,19.63 107.63,9.9 106.72,0L27.82,0.05C26.42,7.92 23.72,15.5 19.82,22.47C25.31,38.29 33.06,53.57 40.27,68.62C47.58,64.04 53.59,57.9 56.72,49.54C59.08,43.24 59.8,35.45 57.61,28.95C57,27.11 59.89,26.33 60.51,28.15C63,35.55 62.04,44.48 59.13,51.56C53.01,66.49 38.44,74.64 23.36,79.34C22.92,79.84 22.23,80.05 21.58,79.88C17.16,81.17 12.72,82.19 8.46,83C6.57,83.36 5.77,80.46 7.66,80.1C11.43,79.39 15.38,78.51 19.35,77.4C14.02,70.3 8.77,63.13 3.61,55.9C-4.68,85.96 3.23,117.65 8.24,147.62Z " /><path id="路径 26" fill-rule="evenodd" style="fill:#1071FE" transform="translate(279.6475046061821 388.42529589825347)  rotate(0 51.782623365466634 30.765589159901594)" opacity="1" d="M48.08,39.36C51.76,38.36 54.69,35.75 58.43,34.86C63.62,33.63 69.08,35.03 73.05,38.59C76.19,41.33 78.2,45.03 82.19,46.74C84.48,47.74 86.95,46.42 88.95,47.3C91.38,48.38 90.52,51.4 90.09,53.44C89.7,55.25 88.46,58 88.87,59.86C89.8,64.14 92.87,59.02 93.68,57.35C95.03,54.66 96.04,51.81 96.68,48.86C97.04,47.26 96.68,44.78 97.47,43.41C98.13,42.3 99.33,41.88 100.28,41.01C101.98,39.45 103.05,37.32 103.28,35.01C103.93,30.54 103.57,25.01 101.34,21.01C98.27,15.47 91.4,19.24 86.34,19.13C80.81,19 77.14,16.13 73.58,12.13C64.81,2.36 50.77,-4.08 38.16,2.98C34.89,4.81 31.96,7.46 28.16,8.05C21.3,9.05 16.36,3.2 9.47,6.65C4.32,9.83 0.32,16.15 0.02,22.24C-0.39,30.7 7.43,32.24 11.77,37.84C15.08,42.08 15.3,47.06 16.77,52C17.49,54.47 19.62,58.03 22.78,57.59C25.25,57.24 25.09,53.99 25.23,51.94C25.45,48.8 25.28,45 27.03,42.22C29.27,38.66 34.03,38.7 37.73,39.07C41.2,39.41 44.61,40.26 48.08,39.36Z " /><path id="路径 27" fill-rule="evenodd" style="fill:#000000" transform="translate(477.9858271588539 773.0699998888283)  rotate(0 41.15359118296169 14.059444444444466)" opacity="1" d="M65.31,15.34L82.31,5.66C82.3,5.55 82.3,5.44 82.31,5.33C82.23,3.55 82.14,1.77 82.06,0C69.25,9.46 49.97,8.09 35.41,3.78C35.31,3.75 35.22,3.71 35.13,3.66C32.72,4.87 30.4,5.97 28.45,7.07L9.86,17.52C8.14,18.52 -6.35,25.44 3.28,27.83C5.9,28.48 9.55,27.83 12.21,27.83L58.06,27.83C57.12,26.45 56.76,24.75 57.06,23.1C57.62,18.85 62.06,17.2 65.31,15.34Z " /><path id="路径 28" fill-rule="evenodd" style="fill:#1071FE" transform="translate(505.22145172364185 8.615151500491407)  rotate(0 76.6749634852514 113.30167089520991)" opacity="1" d="M152.05,200.07C151.05,196.98 149.33,194.13 148.2,191.07C147.19,188.08 145.76,185.23 143.96,182.62C140.84,178.59 139.33,173.53 139.72,168.44C140.05,161.94 142.41,155.68 141.98,149.13C141.58,143.13 139.57,136.87 137.33,131.35C135.01,125.63 131.21,120.62 126.33,116.82C122.39,113.57 118.59,110.46 115.83,106.1C110.36,97.46 108.41,86.72 108.92,76.62C109.3,71.77 110.12,66.97 111.37,62.26C112.4,57.26 112.55,52.11 111.82,47.05C110.53,36.28 105.53,27.84 99.04,19.28C91.7,9.55 82.6,3.53 70.51,1.21C59.09,-0.98 47.25,-0.03 36,2.63C21.37,6.09 8.72,12.83 1.83,26.54C-3.78,38.5 4.18,49.78 16.43,51.83C17.08,52.02 17.53,52.61 17.53,53.28C17.36,60.88 18.5,68.46 20.92,75.66C23.28,82.54 26.18,86.79 33.11,89.39C42.21,92.8 52.87,94.16 58.99,102.7C63.15,108.52 62.29,117.26 60.43,123.81C58.71,129.88 54.14,134.71 52.37,140.74C50.28,147.89 54.08,154.41 57.1,160.65C61.38,169.48 63.3,178.74 58.1,187.65C53.6,195.32 45.55,197.79 38.56,202.3C38.36,202.85 37.83,203.2 37.25,203.19L36.6,203.64C31,207.77 28.2,215.35 33.29,221.2C39.06,227.83 46.69,223.6 53.7,222.63C63.56,221.27 73.25,222.93 82.94,224.48C83.42,224.36 83.93,224.44 84.34,224.71C87.34,225.19 90.45,225.65 93.52,225.99C99.94,226.7 106.95,227.19 113.16,225.08C118.65,223.21 122.77,220.08 128.71,219.29C134.37,218.5 140.05,220.53 145.63,219.35C150.87,218.25 153.35,215.35 153.34,210.07C153.42,206.7 152.98,203.32 152.05,200.07Z " /></g><g opacity="1" transform="translate(0 0)  rotate(0 393.15653356226255 415.565613888281)"><path id="路径 29" fill-rule="evenodd" style="fill:#000000" transform="translate(104.38681757006498 65.82517137430375)  rotate(0 18.350888517393514 27.875739601301873)" opacity="1" d="M30.37,1.01C29.67,-0.77 26.77,0.01 27.47,1.81L27.52,1.81C30.82,10.14 32.84,18.93 33.52,27.87C33.95,34.1 33.68,41.08 30.27,46.54C24.03,56.54 10.27,52.2 2.18,46.61C0.59,45.51 -0.91,48.11 0.66,49.21C7.82,54.21 20.46,58.85 28.33,53.09C33.89,49.02 36.01,41.96 36.53,35.38C37.44,23.95 34.53,11.64 30.37,1.01Z " /><path id="路径 30" fill-rule="evenodd" style="fill:#000000" transform="translate(29.381382545105225 64.3142680229794)  rotate(0 53.48918715086262 72.25249985239302)" opacity="1" d="M6.48 109.89C5.36 116.4 3.95 122.92 3.1 129.49L32.76 140.89L34.48 127.97C34.73 126.08 37.73 126.06 37.48 127.97L35.48 142.97C35.37 143.83 34.58 144.81 33.58 144.42L1.1 131.87C0.45 131.68 0.01 131.09 0 130.42C0.72 124.42 2 118.47 3 112.52C4.4 104.36 5.49 96.04 8.4 88.24C10.97 81.33 15.08 74.33 22.56 72.11C33.19 68.94 48.81 69.62 57.19 61.06C62.64 55.48 62.84 45.13 62.12 37.56C56.1 35.53 50.95 30.91 50 24.42C49.6 21.78 49.11 17.94 52 16.56C53.5028 15.8431 55.3582 15.936 57.2058 16.0285C60.1778 16.1773 63.1294 16.325 64.56 13.1C65.0112 12.0762 65.1016 10.8928 65.1919 9.709C65.3399 7.77085 65.4879 5.83163 67.22 4.59C69.0648 3.27814 71.6962 3.74104 73.951 4.13772C74.4463 4.22484 74.9234 4.30877 75.37 4.37C82.51 5.48 89.79 5.32 96.88 3.91C98.87 3.46 103.18 2.57 104.18 0.66L104.18 0.74C105.12 -0.95 107.71 0.57 106.78 2.26C104.5 6.38 96.94 7.17 93.01 7.66C87.3 8.34 81.53 8.29 75.84 7.51C75.3468 7.44677 74.8136 7.34255 74.2647 7.23527C73.0776 7.00324 71.8173 6.75691 70.73 6.88C68.46 7.13 68.39 7.88 68.08 10.18C67.68 13.1 67.34 15.9 64.68 17.67C62.7757 18.9299 60.7258 18.8858 58.6901 18.8419C57.1875 18.8096 55.6927 18.7774 54.27 19.27C50.09 20.7 54.27 28.89 56.59 31.02C58.68 32.89 61.18 34.26 63.88 35.02C64.52 35.22 64.96 35.8 64.98 36.47C65.79 43.73 65.45 52.16 62.25 58.84C57.94 67.83 46.26 70.31 37.36 72.11C31.93 73.2 25.2 73.49 20.36 76.29C16.64 78.44 14.24 82.29 12.48 86.1C9.05 93.58 7.88 101.89 6.48 109.89Z" /><path id="路径 31" fill-rule="evenodd" style="fill:#000000" transform="translate(16.109222438339657 24.951662504309752)  rotate(0 82.09711823163377 76.92635523286081)" opacity="1" d="M156.46,69.27C152.69,65.68 154.2,62.67 154.46,58.15C154.72,55.17 153.58,52.23 151.37,50.21C148.62,47.37 144.27,44.75 142.64,41.03C141.01,37.31 144.72,33.15 145.26,29.17C146.13,22.32 144.47,15.38 140.6,9.66C133.55,-0.08 116.45,-1.44 105.93,1.15C95.1,3.82 87.04,11.87 76.47,15.08C68.6,17.46 60.47,16.82 52.47,18.18C37.79,20.69 31.76,34.26 31.35,47.84C31.05,57.84 32.6,67.7 33.24,77.61C33.78,86.05 31.93,91.26 24.6,95.48C17.27,99.7 10.85,104.48 5.93,111.71C2.11,117.36 -1.43,124.71 0.58,131.66C2.75,138.98 10.75,143.46 17.85,144.78C19.74,145.11 20.55,142.22 18.65,141.88L18.65,141.83C12.81,140.83 5.92,137.45 3.78,131.56C1.39,125 5.38,117.77 9.05,112.56C13.69,105.94 19.72,101.82 26.58,97.85C30.5,95.57 33.93,92.93 35.41,88.46C37.83,81.15 35.86,72.58 35.22,65.11C34.02,51.17 31.73,30.96 46.68,23.16C52.97,19.87 60.61,20.65 67.45,19.89C75.42,19.06 83.09,16.42 89.87,12.17C98.6,6.71 107.32,2.37 117.87,3.02C123.94,3.36 129.82,5.23 134.96,8.46C140.75,12.23 142.96,21.04 142.43,27.6C141.9,34.16 136.62,37.6 140.96,43.94C142.76,46.56 145.29,48.59 147.59,50.74C148.94,51.99 150.69,53.4 151.29,55.2C152.05,57.45 151.11,60.2 150.84,62.44C150.57,64.68 150.5,66.94 151.73,68.88C153.61,71.88 156.26,72.88 157.18,76.76C158.28,81.38 157.81,86.23 155.83,90.55C154.46,93.38 152.01,95.27 150.88,98.28C148.79,104.37 149.04,111.02 151.57,116.94C152.48,118.88 153.7,119.69 155.2,121.1C157.12,122.98 158.64,125.21 159.69,127.68C163.84,137.09 159.62,145.57 151.45,151C149.85,152.07 151.35,154.67 152.97,153.6C164.48,145.94 168.13,132.43 159.21,121.1C158.08,119.67 156.55,118.74 155.37,117.43C153.09,114.86 152.68,110.32 152.6,107.07C152.5,102.64 153.36,98.94 156.12,95.48C158.3,92.78 159.74,89.57 160.3,86.15C161.3,80.58 160.81,73.41 156.46,69.27Z " /><path id="路径 32" fill-rule="evenodd" style="fill:#000000" transform="translate(114.20572502740583 118.2475722276987)  rotate(0 29.82782875884959 46.69867320400729)" opacity="1" d="M47.42,90.64C46.76,91.09 46.57,91.97 46.97,92.65C47.37,93.33 48.23,93.59 48.94,93.24L48.92,93.28L58.92,87.28C59.37,87.01 59.65,86.52 59.66,85.98C59.02,74.37 57,62.88 53.66,51.74C50.96,42.74 47.49,33.18 41.66,25.65C37.05,19.71 30.28,18.97 23.25,17.97C14.8,16.78 1.12,13.19 3.13,1.88C3.46,-0.01 0.57,-0.82 0.23,1.08C-1.44,10.53 6.43,17.18 14.89,19.46C19.44,20.69 24.16,20.94 28.77,21.81C34.44,22.88 37.95,25.18 41.1,30.03C48.36,41.21 52.1,54.98 54.52,67.95C55.27,71.95 55.86,75.95 56.25,79.95C56.31,80.63 57,84.49 56.97,84.58C56.94,84.67 56.87,84.74 56.16,85.4C53.86,87.57 50.16,89.01 47.42,90.64Z " /><path id="路径 33" fill-rule="evenodd" style="fill:#000000" transform="translate(145.67122368740752 178.58571732819087)  rotate(0 9.141594757793882 57.52566675986381)" opacity="1" d="M10.69,0.78C9.89,-0.97 7.3,0.55 8.1,2.3L8.1,2.32C12.77,12.53 18.05,24.37 13.67,35.62C11.77,40.51 8,44.19 5.32,48.62C3.06,52.49 1.6,56.77 1.02,61.22C-1.49,79.07 0.65,97.26 7.24,114.05C7.94,115.83 10.84,115.05 10.14,113.25C6.82,104.76 4.64,95.88 3.66,86.83C2.52,76.31 1.96,63.54 6.15,53.62C8.15,48.81 11.84,45.12 14.51,40.7C16.7,37.05 17.97,32.94 18.21,28.7C18.89,18.81 14.7,9.56 10.69,0.78Z " /><path id="路径 34" fill-rule="evenodd" style="fill:#000000" transform="translate(64.36138254510479 260.7311111111111)  rotate(0 42 1.5)" opacity="1" d="M82.5,3C83.33,3 84,2.33 84,1.5C84,0.67 83.33,0 82.5,0L1.5,0C0.67,0 0,0.67 0,1.5C0,2.33 0.67,3 1.5,3L82.5,3Z " /><path id="路径 35" fill-rule="evenodd" style="fill:#000000" transform="translate(65.36138254510479 250.7311111111111)  rotate(0 41.5 1.5)" opacity="1" d="M81.5,3C82.33,3 83,2.33 83,1.5C83,0.67 82.33,0 81.5,0L1.5,0C0.67,0 0,0.67 0,1.5C0,2.33 0.67,3 1.5,3L81.5,3Z " /><path id="路径 36" fill-rule="evenodd" style="fill:#000000" transform="translate(19.82975128515409 193.2475722276987)  rotate(0 21.556146079352175 75.18657174910973)" opacity="1" d="M9.64,29.71C10.97,20.43 12.35,11.16 13.76,1.88C14.05,-0.01 11.16,-0.82 10.87,1.08L10.88,1.08C7.49,23.08 4.25,45.08 1.69,67.23C1.05,72.7 0.42,78.18 0.1,83.68C-0.08,86.87 -0.16,89.57 1.1,92.53C6,103.63 14.1,113.77 21.1,123.6C27.35,132.4 33.73,141.12 40.22,149.74C41.37,151.26 43.98,149.74 42.82,148.22C29.82,131.01 16.05,113.56 5.58,94.65C3.95,91.72 2.9,89.44 2.98,86.09C3.09,81.31 3.65,76.52 4.16,71.77C5.69,57.72 7.64,43.7 9.64,29.71Z " /><path id="路径 37" fill-rule="evenodd" style="fill:#000000" transform="translate(53.79830961460789 206.80610124282668)  rotate(0 13.012477378000483 63.97697765380164)" opacity="1" d="M4.31,57.54C5.52,46.4 6.87,35.28 8.23,24.15C9.17,16.57 10.11,9 11.06,1.43C11.3,-0.48 8.3,-0.46 8.06,1.43C5.78,19.38 3.55,37.35 1.55,55.33C0.88,61.33 -0.95,68.53 0.61,74.55C3.17,84.43 8.04,94 12.2,103.28C15.8,111.28 19.48,119.25 23.26,127.19C24.1,128.93 26.69,127.41 25.86,125.67C18.11,109.51 9.74,93.08 4.19,76.01C2.19,70.01 3.64,63.74 4.31,57.54Z " /><path id="路径 38" fill-rule="evenodd" style="fill:#000000" transform="translate(55.90757502050269 206.75622265136644)  rotate(0 6.327243789988131 40.44426159807554)" opacity="1" d="M9.47,44.26C9,56.8 6.47,67.69 0.15,78.71C-0.19,79.43 0.07,80.28 0.75,80.68C1.43,81.08 2.31,80.89 2.75,80.23C9.01,69.23 11.84,58.16 12.41,45.64C13.21,30.7 12.04,15.72 8.95,1.07C8.53,-0.81 5.64,-0.02 6.05,1.87L6,1.87C8.94,15.8 10.11,30.05 9.47,44.26Z " /><path id="路径 39" fill-rule="evenodd" style="fill:#000000" transform="translate(137.8852055517043 335.79110134561876)  rotate(0 16.453088496700275 185.09188110027463)" opacity="1" d="M32.86,368.74L32.91,368.76L29.91,332.21L22.76,244.42L14.11,138.24L6.66,46.84L4.19,16.52C3.81,11.89 4.06,6.63 3.01,2.09C3.01,1.88 3.01,1.65 3.01,1.44C2.85,-0.47 -0.15,-0.49 0.01,1.44L3.01,38L10.16,125.78L18.76,231.94L26.21,323.34L28.68,353.66C29.06,358.3 28.81,363.55 29.86,368.1C29.86,368.3 29.86,368.53 29.86,368.74C30.02,370.66 33.02,370.67 32.86,368.74Z " /><path id="路径 40" fill-rule="evenodd" style="fill:#000000" transform="translate(36.52365355028314 314.8336659619387)  rotate(0 58.16261449741097 215.44372257458616)" opacity="1" d="M114.88 429.89C116.81 429.89 116.81 426.89 114.88 426.89L63.15 427.86C61.21 415.39 59.29 402.91 57.4 390.43Q50.395 344.665 43.24 298.93C37.54 262.26 31.79 225.59 25.99 188.93C21.11 158.13 16.22 127.33 11.08 96.57C10.3743 92.3529 9.6111 88.1017 8.84342 83.826C4.11722 57.5022 -0.776679 30.2445 6.57 4.23C6.8 3.42 7.03 2.61 7.33 1.82C8 0.01 5.1 -0.78 4.43 1.02L4.39 1C0.16 12.45 -0.18 26 0.06 38C0.4 54.39 3.57 70.39 6.31 86.49C11.31 115.59 15.91 144.74 20.55 173.9C26.39 210.63 32.17 247.38 37.88 284.14C42.94 316.61 47.97 349.09 52.98 381.58C54.64 392.3 56.3 403.03 57.98 413.77C58.72 418.58 58.72 424.49 60.33 429.11C60.38 429.33 60.41 429.56 60.43 429.79C60.61 430.44 61.2 430.89 61.88 430.89L114.88 429.89Z" /><path id="路径 41" fill-rule="evenodd" style="fill:#000000" transform="translate(93.36138254510479 715.7311111111111)  rotate(0 32.5 1.5)" opacity="1" d="M63.5,3C64.33,3 65,2.33 65,1.5C65,0.67 64.33,0 63.5,0L1.5,0C0.67,0 0,0.67 0,1.5C0,2.33 0.67,3 1.5,3L63.5,3Z " /><path id="路径 42" fill-rule="evenodd" style="fill:#000000" transform="translate(152.8864616980145 290.87872049591084)  rotate(0 32.94043735534501 167.4736881216948)" opacity="1" d="M65.6,248.14C63.69,233.72 60.26,219.74 56.74,205.63C43.36,152.07 29.04,98.73 14.8,45.38C10.86,30.58 6.9,15.78 2.92,0.98C2.65,0.25 1.86,-0.15 1.11,0.05C0.35,0.26 -0.12,1.01 0.02,1.78L0.02,1.75C10.12,39.27 20.12,76.82 30.02,114.38C37.02,141.03 44.02,167.69 50.82,194.38C54.37,208.38 59.15,223.31 60.97,237.38C61.71,243.08 63.29,248.95 62.91,254.72C62.21,265.18 55.29,274.59 49.17,282.62C36.33,299.5 22.98,316.03 9.41,332.32C8.18,333.79 10.29,335.93 11.53,334.44C22.71,321.04 33.65,307.46 44.37,293.68C54.58,280.62 67.97,265.99 65.6,248.14Z " /><path id="路径 43" fill-rule="evenodd" style="fill:#000000" transform="translate(18.870723645998396 602.7813006742311)  rotate(0 37.95387053760675 64.97556841528672)" opacity="1" d="M3.53 87.07L51.79 12.93L58.79 2.21C59.84 0.58 57.25 -0.92 56.19 0.69L7.19 75.97L0.19 86.69C-0.2 87.41 0.03 88.32 0.73 88.75L57.73 129.75C58.32 130.09 59.07 129.99 59.55 129.51L75.55 109.51C76.75 108.02 74.64 105.88 73.43 107.39L58.22 126.41L3.53 87.07Z" /><path id="路径 44" fill-rule="evenodd" style="fill:#000000" transform="translate(31.92421651790596 670.6737023875413)  rotate(0 30.437166027198828 21.057408723569665)" opacity="1" d="M58.68,41.86C60.29,42.94 61.79,40.34 60.2,39.26L2.2,0.26C0.59,-0.82 -0.91,1.78 0.68,2.86L58.68,41.86Z " /><path id="路径 45" fill-rule="evenodd" style="fill:#000000" transform="translate(0 699.8128300619925)  rotate(0 39.11879205341393 52.141993615928925)" opacity="1" d="M70,76.32C71.94,82.13 73.49,88.06 74.64,94.08C74.99,95.94 75.45,97.35 74.56,99.13C73.35,101.53 71.03,102.13 68.56,100.85C68.28,100.71 68.05,100.47 67.78,100.32C63.4,97.75 59.3,94.45 55.12,91.56L14.95,63.79C11.79,61.61 7.55,59.52 5.07,56.5C-0.2,50.06 6.07,43.66 9.81,38.45L35.62,2.18C36.74,0.6 34.14,-0.9 33.02,0.66L33.06,0.66L8.16,35.66C5.27,39.73 0.51,44.66 0.05,49.83C-0.54,56.37 4.05,59.83 8.73,63.1L50.05,91.67C55.27,95.28 60.45,98.97 65.73,102.5C70.53,105.72 77.9,104.85 78.22,97.71C78.48,91.6 75.55,84.09 73.79,78.34C71.54,70.8 68.5,63.53 64.72,56.63C60.72,49.47 52.59,43.02 57.37,34.46C59.37,30.96 61.57,27.6 63.66,24.18C64.66,22.53 62.07,21.02 61.06,22.66C57.86,27.91 52.13,34.38 52.51,40.87C52.86,46.96 58.41,51.74 61.34,56.77C64.9,62.97 67.8,69.52 70,76.32Z " /><path id="路径 46" fill-rule="evenodd" style="fill:#000000" transform="translate(154.85714017709688 760.7518979453896)  rotate(0 24.03075041753266 20.945672559701507)" opacity="1" d="M2.93,1.08C2.55,-0.81 -0.35,-0.01 0.03,1.88C1.45,8.94 2.19,16.57 4.37,23.43C6.44,29.96 15.57,27.77 20.8,28.96C29.94,31.04 38.13,35.77 45.42,41.54C46.92,42.73 49.05,40.62 47.54,39.42L47.56,39.42C41.98,34.83 35.74,31.11 29.05,28.37C25.14,26.84 21.06,25.78 16.89,25.23C13.8,24.82 8.89,25.84 7.24,22.45C5.72,19.24 5.62,14.39 4.93,10.92L2.93,1.08Z " /><path id="路径 47" fill-rule="evenodd" style="fill:#000000" transform="translate(120.25663232273905 743.2911013456186)  rotate(0 43.354875111182764 38.49500488274629)" opacity="1" d="M7.07,74.5C9.18,76.17 12.95,75.56 15.34,75.6L53.44,76.36L85.25,76.99C87.19,76.99 87.19,73.99 85.25,73.99L21.55,72.73C18.2,72.66 13.83,73.32 10.55,72.51C7.84,71.84 8.3,69.96 8.12,67.51L5.32,31.44L3,1.44C2.86,-0.47 -0.14,-0.49 0,1.44L5.07,67.03C5.25,69.44 4.96,72.83 7.07,74.5Z " /><path id="路径 48" fill-rule="evenodd" style="fill:#000000" transform="translate(45.88216937938296 290.8078070694718)  rotate(0 27.678724894794584 27.952088119836958)" opacity="1" d="M50.14,22.41C42.82,41.99 19.68,49.41 1.08,52.97C-0.81,53.33 -0.01,56.23 1.88,55.87C21.24,52.18 44.4,44.31 52.55,24.43C55.46,17.34 56.42,8.43 53.93,1.02C53.31,-0.8 50.42,0.02 51.03,1.82C53.22,8.32 52.5,16.11 50.14,22.41Z " /><path id="路径 49" fill-rule="evenodd" style="fill:#000000" transform="translate(170.8613825451048 202.7311111111112)  rotate(0 4.663823698750775 17.097560397701983)" opacity="1" d="M1.39,23.05C1.85,27.05 1.98,35.89 8.3,33.91C10.13,33.33 9.3,30.44 7.5,31.02C4.19,32.02 3.86,17.63 3.7,15.63C3.34,10.94 2.99,6.21 3,1.5C3,0.67 2.33,0 1.5,0C0.67,0 0,0.67 0,1.5C0.05,8.7 0.52,15.9 1.39,23.05Z " /><path id="路径 50" fill-rule="evenodd" style="fill:#000000" transform="translate(20.504246334580557 718.5289019763055)  rotate(0 17.690103866125128 13.587152567363717)" opacity="1" d="M32.8,26.75C34.2,28.08 36.33,25.96 34.92,24.63C25.08,15.17 14.11,6.96 2.25,0.2C0.57,-0.74 -0.95,1.85 0.74,2.79L0.74,2.75C12.37,9.4 23.14,17.46 32.8,26.75Z " /><path id="路径 51" fill-rule="evenodd" style="fill:#000000" transform="translate(124.62784366169217 778.4789871944773)  rotate(0 18.084895665592512 2.9849523072333)" opacity="1" d="M34.73,3.25C36.65,3.43 36.64,0.43 34.73,0.25C23.52,-0.75 12.13,1.44 1.08,3.05C-0.82,3.33 -0.01,6.22 1.88,5.95C12.68,4.37 23.78,2.23 34.73,3.25Z " /><path id="路径 52" fill-rule="evenodd" style="fill:#000000" transform="translate(44.86138254510479 410.7311111111111)  rotate(0 1.5 120.5)" opacity="1" d="M0,239.5C0,240.33 0.67,241 1.5,241C2.33,241 3,240.33 3,239.5L3,1.5C3,0.67 2.33,0 1.5,0C0.67,0 0,0.67 0,1.5L0,239.5Z " /><path id="路径 53" fill-rule="evenodd" style="fill:#000000" transform="translate(20.505826989549178 284.73111111111103)  rotate(0 1.8555555555556111 201.75000000000006)" opacity="1" d="M3.36,1.5C3.36,0.67 2.68,0 1.86,0C1.03,0 0.36,0.67 0.36,1.5L0.36,385.71C0.36,390.71 -0.44,396.4 0.36,401.31C0.38,401.54 0.38,401.77 0.36,402C0.36,402.83 1.03,403.5 1.86,403.5C2.68,403.5 3.36,402.83 3.36,402L3.36,17.79C3.36,12.79 4.16,7.1 3.36,2.19C3.34,1.96 3.34,1.73 3.36,1.5Z " /><path id="路径 54" fill-rule="evenodd" style="fill:#000000" transform="translate(20.86138254510479 691.2311111111111)  rotate(0 1.5 13.75)" opacity="1" d="M3,1.5C3,0.67 2.33,0 1.5,0C0.67,0 0,0.67 0,1.5L0,26C0,26.83 0.67,27.5 1.5,27.5C2.33,27.5 3,26.83 3,26L3,1.5Z " /><path id="路径 55" fill-rule="evenodd" style="fill:#000000" transform="translate(20.687836633922075 769.0111111111111)  rotate(0 13.78569698985018 22.81158348202848)" opacity="1" d="M0.17,1.5L0.17,21.22C0.17,27.4 -1.04,35.11 2.93,40.36C5.82,44.08 10.43,46.04 15.11,45.55C19.8,45.05 23.89,42.16 25.93,37.92C28.59,32.26 27.21,24.17 27.21,18.1C27.21,17.27 26.54,16.6 25.71,16.6C24.89,16.6 24.21,17.27 24.21,18.1L24.17,18.1C24.17,22.78 24.41,27.54 24.17,32.22C23.45,46.02 3.71,45.63 3.17,31.86C2.77,21.77 3.17,11.6 3.17,1.5C3.17,0.67 2.5,0 1.67,0C0.85,0 0.17,0.67 0.17,1.5Z " /><path id="路径 56" fill-rule="evenodd" style="fill:#000000" transform="translate(44.86138254510479 785.6111111111111)  rotate(0 1.5 1.5)" opacity="1" d="M3,1.5C3,0.67 2.33,0 1.5,0C0.67,0 0,0.67 0,1.5C0,2.33 0.67,3 1.5,3C2.33,3 3,2.33 3,1.5Z " /><path id="路径 57" fill-rule="evenodd" style="fill:#000000" transform="translate(44.86138254510479 648.7311111111111)  rotate(0 1.5 1.5)" opacity="1" d="M3,1.5C3,0.67 2.33,0 1.5,0C0.67,0 0,0.67 0,1.5C0,2.33 0.67,3 1.5,3C2.33,3 3,2.33 3,1.5Z " /><path id="路径 58" fill-rule="evenodd" style="fill:#000000" transform="translate(36.8005484701323 154.79402115737685)  rotate(0 63.03928872122992 7.764824571012099)" opacity="1" d="M106.24,9.51C97.29,11.23 88.2,12.15 79.09,12.27C60.16,12.8 40.77,11.66 22.22,7.67C15.79,6.28 7.81,4.76 2.62,0.38C1.15,-0.86 -0.98,1.25 0.5,2.5C4.97,6.28 11.1,8.01 16.66,9.44C25.73,11.66 34.96,13.18 44.26,13.99C64.34,15.99 85.34,16.49 105.26,12.76C112.26,11.44 120.32,9.59 125.62,4.5C127.02,3.16 124.89,1.04 123.5,2.38C119.01,6.68 112.13,8.29 106.24,9.51Z " /><path id="路径 59" fill-rule="evenodd" style="fill:#000000" transform="translate(119.93153545033101 102.91953004748814)  rotate(0 6.571575568206526 2.0410388896561926)" opacity="1" d="M12.12,3.57C13.94,2.95 13.12,0.05 11.32,0.68C8.52,1.68 4.67,0.68 1.87,0.04C-0.01,-0.38 -0.81,2.51 1.08,2.94L1.12,2.94C4.45,3.69 8.82,4.71 12.12,3.57Z " /><path id="路径 60" fill-rule="evenodd" style="fill:#000000" transform="translate(147.88646169801495 177.72276337240373)  rotate(0 63.07684434529108 48.698160764657786)" opacity="1" d="M109.77,7.77C106.15,9.23 104.15,12.55 100.77,14.37C96.57,16.65 92.6,15.83 89.22,19.71C88.22,20.88 87.39,22.23 86.45,23.47C80.51,31.25 74.33,38.85 68.28,46.54L44.04,77.3C38.81,83.94 33.79,90.66 25.28,93.44C7.28,99.33 5.86,67.01 2.92,56.11C2.65,55.38 1.86,54.97 1.11,55.18C0.35,55.39 -0.12,56.14 0.02,56.91C1.92,63.91 2.7,71.15 4.73,78.12C6.54,84.38 9.27,92.83 15.55,96.04C25.17,100.97 36.7,91.43 42.42,84.17C57.75,64.71 73.24,45.38 88.42,25.8C89.55,24.1 90.79,22.48 92.15,20.97C94.63,18.59 97.62,18.91 100.58,17.79C102.91,16.75 105.02,15.27 106.79,13.44C109.17,11.35 112.03,9.89 115.1,9.17C117.87,8.37 121.74,8.33 124.2,6.81C126.9,5.13 126.58,2.53 124.55,0.45C123.2,-0.93 121.08,1.19 122.43,2.57L122.41,2.57C124.52,4.73 117.76,5.39 116.59,5.66C114.27,6.2 112,6.9 109.77,7.77Z " /><path id="路径 61" fill-rule="evenodd" style="fill:#000000" transform="translate(239.90805909628466 176.70739732175775)  rotate(0 16.073066197296384 2.740857831802572)" opacity="1" d="M19.75,0.83C17.04,1.32 14.37,2.18 11.61,2.41C8.36,2.69 4.96,1.73 1.85,0.79C-0.01,0.24 -0.8,3.13 1.05,3.69C4.94,4.86 8.98,5.92 13.05,5.29C17.83,4.55 25.2,1.29 29.87,3.62C31.59,4.48 33.11,1.89 31.38,1.02L31.37,1.02C27.88,-0.73 23.47,0.15 19.75,0.83Z " /><path id="路径 62" fill-rule="evenodd" style="fill:#000000" transform="translate(251.13310744408682 171.17261429996756)  rotate(0 17.58503837924411 3.253191311490383)" opacity="1" d="M14.46,2.21C10.04,1.79 4.71,1.49 0.7,3.74C0.02,4.17 -0.2,5.06 0.2,5.76C0.61,6.46 1.5,6.71 2.21,6.33C8.57,2.76 17.84,6.11 24.71,6.06C27.88,6.06 34.47,6.06 35.15,1.88C35.45,0 32.56,-0.82 32.25,1.09C31.6,5.09 17.08,2.46 14.46,2.21Z " /><path id="路径 63" fill-rule="evenodd" style="fill:#000000" transform="translate(177.8788395862441 167.47442201822224)  rotate(0 54.050409029939374 34.63751841579807)" opacity="1" d="M89.17,0.37C81.8,-0.23 75.17,-0.28 68,1.67C63.57,2.88 57.73,3.89 54.41,7.36C50.04,11.94 47.92,18.11 43.41,22.71C33.31,33.03 23.23,43.36 13.15,53.71L0.43,66.71C-0.92,68.09 1.2,70.21 2.55,68.83L29.88,40.83L43.98,26.38C45.5,24.82 47.09,23.32 48.49,21.66C52.35,17.08 54.16,9.33 60.16,7.13C66.16,4.93 73.53,2.82 80.02,2.78C84.92,2.87 89.8,3.24 94.65,3.87C98.08,4.23 102.81,4.33 105.89,6.08C106.6,6.46 107.49,6.21 107.9,5.51C108.3,4.81 108.08,3.92 107.4,3.49L107.44,3.49C102.44,0.65 94.7,0.82 89.17,0.37Z " /><path id="路径 64" fill-rule="evenodd" style="fill:#000000" transform="translate(271.1988727284852 173.78860487221584)  rotate(0 5.96092270876386 3.610579613684024)" opacity="1" d="M6.66,3.86C4.93,4.09 3.17,4.04 1.43,4.21C-0.47,4.4 -0.49,7.4 1.43,7.21C5.23,6.83 14.43,7.21 11.27,0.76C10.42,-0.97 7.83,0.55 8.68,2.28L8.66,2.28C9.35,3.67 7.76,3.71 6.66,3.86Z " /><path id="路径 65" fill-rule="evenodd" style="fill:#000000" transform="translate(272.06388254510466 177.00860129449165)  rotate(0 5.015056575404401 3.416254908309668)" opacity="1" d="M9.08,5.07C9.63,4.51 9.95,3.77 10.01,2.98C10.04,2.68 10.04,2.37 10.01,2.06C10.01,1.93 9.89,1.06 9.92,1.43C9.73,-0.47 6.73,-0.49 6.92,1.43L6.85,1.43C6.85,1.69 6.93,1.95 6.96,2.21C6.96,2.21 6.96,2.67 6.96,2.41C6.96,2.75 6.96,2.87 6.96,2.94C6.57,3.44 5.51,3.51 4.96,3.59C3.79,3.76 2.62,3.84 1.45,3.83C-0.48,3.83 -0.48,6.83 1.45,6.83C3.83,6.78 7.26,6.91 9.08,5.07Z " /><path id="路径 66" fill-rule="evenodd" style="fill:#000000" transform="translate(635.3563825451047 671.2311111111111)  rotate(0 42.93249999999989 64.995)" opacity="1" d="M0.1 2.05L11.56 112.92L13.16 128.49C13.18 129.31 13.84 129.98 14.66 129.99L71.25 129.99C72.07 129.97 72.73 129.31 72.75 128.49L84.26 17.07L85.86 1.5C85.86 0.67 85.19 0 84.36 0L1.51 0C1.27 0 1.04 0.05 0.85 0.15C0.43 0.3 0.11 0.62 0.05 1.13C0.02 1.25 0 1.38 0 1.5C0 1.7 0.04 1.88 0.1 2.05Z" /><path id="路径 67" fill-rule="evenodd" style="fill:#000000" transform="translate(639.143496733268 473.91283601009343)  rotate(0 21.76521487823686 100.15913755050883)" opacity="1" d="M40.43,111.47L40.43,198.82C40.43,199.65 41.1,200.32 41.93,200.32C42.76,200.32 43.43,199.65 43.43,198.82L43.43,115.37C43.43,108.76 43.85,102 42.99,95.43C41.89,88.11 40.05,80.91 37.52,73.96C32.06,58.05 24.89,42.7 17.3,27.7C12.69,18.57 7.9,9.5 2.77,0.7C2.34,0.02 1.44,-0.2 0.74,0.2C0.05,0.61 -0.2,1.5 0.18,2.21L0.18,2.16C12.62,23.62 24.04,46.16 32.7,69.38C35.41,76.36 37.58,83.54 39.19,90.86C40.6,97.71 40.43,104.51 40.43,111.47Z " /><path id="路径 68" fill-rule="evenodd" style="fill:#000000" transform="translate(592.9424842288659 496.96677933192166)  rotate(0 33.48197352120394 60.51858653318078)" opacity="1" d="M20.38 84.93C28.25 93.68 36.78 101.8 45.9 109.23C50.75 113.23 55.7 117.23 60.84 120.83C61.24 121.07 61.73 121.1 62.16 120.93C62.6 120.75 62.92 120.38 63.05 119.93C73.91 79.21 62.46 29.67 25.15 6.28C21.05 3.7 16.39 1.16 11.62 0.07C11.56 0.06 11.49 0.05 11.43 0.04C10.87 -0.09 10.26 0.08 9.92 0.76C1.35 16.76 -2.87 37.65 2.17 55.28C5.4 66.55 12.73 76.28 20.38 84.93Z" /><path id="路径 69" fill-rule="evenodd" style="fill:#000000" transform="translate(621.1828364196076 541.902564614902)  rotate(0 19.263389816008157 66.16427324810451)" opacity="1" d="M35.27,109.01L35.27,130.83C35.27,131.66 35.94,132.33 36.77,132.33C37.6,132.33 38.27,131.66 38.27,130.83C38.27,116.77 39.11,102.4 37.76,88.39C35.29,62.89 25.19,38.32 12.6,16.22C9.62,10.87 6.38,5.67 2.87,0.66C1.75,-0.9 -0.85,0.6 0.28,2.17L0.28,2.18C9.58,15.18 17.11,29.82 23.16,44.55C28.43,57.39 32.53,70.85 34.32,84.64C35.38,92.75 35.27,100.86 35.27,109.01Z " /><path id="路径 70" fill-rule="evenodd" style="fill:#000000" transform="translate(684.0786962531847 509.66256461490195)  rotate(0 19.255616208708716 82.28427324810457)" opacity="1" d="M1.73,164.57C2.56,164.57 3.23,163.9 3.23,163.07L3.23,108.98C3.23,98.74 3.29,88.67 5.13,78.52C8.36,60.7 15,43.52 23.23,27.47C27.6,18.67 32.61,10.22 38.23,2.17C39.36,0.6 36.76,-0.9 35.64,0.66L35.63,0.66C20.76,21.54 9.98,45.06 3.87,69.96C-1.38,91.96 0.23,114.96 0.23,137.35L0.23,163.07C0.23,163.9 0.9,164.57 1.73,164.57Z " /><path id="路径 71" fill-rule="evenodd" style="fill:#000000" transform="translate(629.6061665496618 381.6624814410526)  rotate(0 20.450939117079542 146.2630648350294)" opacity="1" d="M21.02,53.55C24.95,63.73 29.02,73.97 31.91,84.49C34.37,93.34 34.61,102.79 35.2,111.9C36.68,134.41 37.98,157.11 37.89,179.68C37.82,198.44 37.18,217.22 36.76,235.98C36.34,254.34 35.91,272.71 35.48,291.08C35.48,293.01 38.48,293.01 38.48,291.08C39.35,254.79 40.4,218.5 40.87,182.22C41.14,161.27 39.87,140.22 38.66,119.3C38.06,108.98 37.85,98.3 35.89,88.12C34.06,78.65 30.2,69.38 26.82,60.38C19.3,40.32 11.14,20.49 2.73,0.79C1.97,-0.98 -0.61,0.54 0.14,2.3C7.38,19.26 14.34,36.34 21.02,53.55Z " /><path id="路径 72" fill-rule="evenodd" style="fill:#000000" transform="translate(644.0348324671181 296.80956103312445)  rotate(0 18.075612476213564 188.4564012502296)" opacity="1" d="M35.41,162.15C35.68,149.91 36.33,137.62 36.11,125.38C35.66,99.95 34.28,73.14 25.8,48.99C19.8,32.16 12.09,16 2.8,0.74C2.38,0.03 1.46,-0.21 0.74,0.21C0.03,0.63 -0.21,1.55 0.21,2.26L0.2,2.26C8.17,15.43 14.99,29.27 20.59,43.61C29.84,67.32 31.94,92.79 32.88,118.05C33.36,130.69 32.8,143.34 32.53,155.99L28.83,326.46L27.77,375.46C27.77,377.4 30.77,377.39 30.77,375.46L33.56,247.46L35.41,162.15Z " /><path id="路径 73" fill-rule="evenodd" style="fill:#000000" transform="translate(610.3501764186085 260.2163270712459)  rotate(0 28.66659550486338 46.678885934873676)" opacity="1" d="M1.5 0.01C0.82 -0.07 0.38 0.25 0.19 0.72C0.06 0.93 -0.01 1.2 0 1.51C0.64 18.24 2.92 37.51 11.4 52.18C17.3 62.41 27.31 70.75 36.07 78.46C41.83 83.53 47.73 88.46 53.82 93.15C54.22 93.39 54.71 93.42 55.14 93.25C55.57 93.07 55.9 92.7 56.02 92.25C58.56 74.38 57.75 54.04 50.58 37.34C42.66 18.93 21.66 2.66 1.5 0.01Z" /><path id="路径 74" fill-rule="evenodd" style="fill:#000000" transform="translate(622.1898106823694 449.644584598948)  rotate(0 18.300600919369344 29.4353889275921)" opacity="1" d="M34.89 58.76C35.33 58.59 35.65 58.22 35.78 57.78C37.35 46.64 36.88 34.07 32.47 23.63C27.59 12.08 14.47 1.73 1.89 0.02C1.73 -0.01 1.58 0 1.44 0.01C0.69 0.01 -0.04 0.5 0 1.47C0 1.51 0.01 1.56 0.01 1.61C0 1.72 0 1.82 0.02 1.93C0.44 12.23 1.9 23.94 7.05 32.98C10.63 39.26 16.71 44.38 22.05 49.11C25.78 52.42 29.62 55.63 33.57 58.67C33.97 58.9 34.46 58.94 34.89 58.76Z" /><path id="路径 75" fill-rule="evenodd" style="fill:#000000" transform="translate(688.0811186454225 461.138968823219)  rotate(0 23.708756118952806 58.11803613279346)" opacity="1" d="M43.35 0.04C43.02 -0.04 42.65 -0.01 42.27 0.2C32.05 5.88 23.47 15.63 17.36 25.4C10.62 36.17 7.19 47.98 4.92 60.4C2.66 72.54 1.16 84.81 0.41 97.14C-0.01 102.99 -0.11 108.85 0.12 114.7C0.18 115.7 1.39 116.7 2.38 116C18.74 104.18 33.24 87 40.74 68.2C48.97 47.64 48.81 22.64 44.48 1.12C44.34 0.43 43.87 0.1 43.35 0.04Z" /><path id="路径 76" fill-rule="evenodd" style="fill:#000000" transform="translate(698.5513825451048 566.2311111111111)  rotate(0 1.5 54)" opacity="1" d="M0,106.5C0,107.33 0.67,108 1.5,108C2.33,108 3,107.33 3,106.5L3,1.5C3,0.67 2.33,0 1.5,0C0.67,0 0,0.67 0,1.5L0,106.5Z " /><path id="路径 77" fill-rule="evenodd" style="fill:#000000" transform="translate(698.5513825451046 350.67322529927344)  rotate(0 18.414137550509395 74.90894290591888)" opacity="1" d="M36.62,0.74C36.22,0.05 35.33,-0.2 34.62,0.18L34.57,0.18C26.48,4.85 20,13.18 15.19,20.95C1.91,42.43 0,67.1 0,91.73L0,148.32C0,149.15 0.67,149.82 1.5,149.82C2.33,149.82 3,149.15 3,148.32L3,99.7C3,85.7 2.53,71.57 5,57.7C8.12,39.7 15.44,21.7 28.72,8.77C30.93,6.47 33.42,4.46 36.13,2.77C36.81,2.34 37.03,1.44 36.62,0.74Z " /><path id="路径 78" fill-rule="evenodd" style="fill:#000000" transform="translate(602.8893590277405 334.7337008683536)  rotate(0 31.819697067026482 56.93964334999126)" opacity="1" d="M55.46 48.78C63.1 67.34 62.1 90.57 53.77 109.03C50.56 103.95 44.82 99.79 40.59 96.1C31.21 87.91 21.59 79.99 12.53 71.44C11.13 70.11 9 72.23 10.41 73.56C18.74 81.43 27.54 88.77 36.21 96.26C39.63 99.26 43.05 102.17 46.28 105.33C48.47 107.47 51.28 109.86 52.38 112.79C52.8 113.88 54.49 114.41 55.12 113.15C64.99 93.48 66.62 67.95 58.23 47.62C48.82 24.83 25.87 5.83 1.87 0.05C-0.01 -0.4 -0.81 2.49 1.07 2.95C24.2 8.51 46.4 26.8 55.46 48.78Z" /><path id="路径 79" fill-rule="evenodd" style="fill:#000000" transform="translate(690.3486403745137 325.1384705915523)  rotate(0 37.6953560093516 57.94709564648329)" opacity="1" d="M17.67 107.07C21.25 103.54 25.03 100.21 28.82 96.9C38.19 88.69 47.82 80.72 56.82 72.12C64.1 65.18 69.75 58.54 72.5 48.67C75.15 39.19 75.62 29.1 75.3 19.31C75.14 13.2 74.57 7.11 73.59 1.08C73.45 0.37 72.93 0.05 72.37 0.04C72.17 -0.01 71.95 -0.01 71.71 0.03C57.1 2.9 42.45 9.89 30.58 18.72C7.58 35.85 -3.59 62.3 1.02 90.77C2.26 99.24 4.8 107.46 8.56 115.15C9.2 116.41 10.88 115.91 11.3 114.8C12.44 111.8 15.46 109.25 17.67 107.07Z" /><path id="路径 80" fill-rule="evenodd" style="fill:#1071FE" transform="translate(698.101382545105 154.30111111111103)  rotate(0 43.35000000000002 56.20500000000001)" opacity="1" d="M33.1 76.07L10.36 69.09L0 52.2L86.7 0L41.61 112.41L26.86 89.67L33.1 76.07Z" /><path id="路径 81" fill-rule="evenodd" style="fill:#000000" transform="translate(696.5490885820573 152.83884299252395)  rotate(0 44.88198927123392 57.682189718734435)" opacity="1" d="M44.58 114.29C44.41 114.86 43.92 115.27 43.33 115.35C42.74 115.43 42.16 115.16 41.84 114.65L28.23 93.65C26.71 91.31 26.96 90.64 28.13 88.08L32.55 78.47L23.32 75.63C19.8 74.55 14.79 73.94 11.61 72.04C9.26 70.63 7.83 66.82 6.44 64.54L0.23 54.42C-0.22 53.69 0.04 52.98 0.57 52.57C0.64 52.5 0.71 52.44 0.79 52.38L11.57 45.89L87.47 0.18C88.51 -0.44 90.17 0.62 89.67 1.88L84.09 15.78L44.58 114.29ZM30 91.26C29.67 91.475 29.6275 91.5625 29.6887 91.5525C29.75 91.5425 29.915 91.435 30 91.26Z" /><path id="路径 82" fill-rule="evenodd" style="fill:#FFFFFF" transform="translate(709.7813825451049 196.76111111111106)  rotate(0 18.68999999999994 16.355000000000018)" opacity="1" d="M0 25.55L37.38 0L22.82 32.71L0 25.55Z" /><path id="路径 83" fill-rule="evenodd" style="fill:#000000" transform="translate(337.69904502170766 0)  rotate(0 45.578477903150315 34.11445054703299)" opacity="1" d="M90.9409 48.7776C91.387 56.6602 91.9881 67.2835 82.99 68.19C82.87 68.2 82.76 68.2 82.66 68.19L12.26 68.19C11.8094 68.19 11.3517 68.1993 10.8905 68.2087C8.40372 68.2592 5.81416 68.3118 3.68 66.92C0.172475 64.6333 0.176154 60.9196 0.179768 57.2708C0.179884 57.1538 0.18 57.0368 0.18 56.92L0.18 19.53C0.18 18.53 0.138221 17.44 0.0946604 16.3035C-0.172812 9.32525 -0.507467 0.594176 8.35 0.19C14.7137 -0.096833 21.1308 -0.00100007 27.533 0.0946108C30.7285 0.142333 33.9204 0.19 37.1 0.19L75.68 0.19C76.0323 0.19 76.3871 0.188657 76.7433 0.18731C83.4636 0.16188 90.6701 0.134611 90.86 9.09C91.0186 16.5581 90.9397 24.0382 90.8608 31.5151C90.8154 35.8221 90.77 40.1281 90.77 44.43C90.7666 45.6979 90.8506 47.1816 90.9409 48.7776Z" /><path id="路径 84" fill-rule="evenodd" style="fill:#000000" transform="translate(387.50136184809185 6.824026856551171)  rotate(0 4.381232917886791 4.378916458140736)" opacity="1" d="M4.44 0C6.74 0.03 8.61 1.83 8.75 4.1C8.76 4.19 8.77 4.29 8.76 4.39C8.76 4.45495 8.01376 4.42255 7.26565 4.39008L7.26564 4.39008L7.26562 4.39008L7.2656 4.39008C6.51623 4.35755 5.765 4.32495 5.76 4.39C5.85 6.17 8.44 6.31 8.74 4.77C8.49 7.05 6.55 8.8 4.22 8.76C1.82 8.67 -0.06 6.67 0 4.27C0.06 1.87 2.04 -0.03 4.44 0ZM8.74 4.77C8.76 4.65 8.77 4.53 8.76 4.39C8.76 4.52 8.75 4.65 8.74 4.77Z" /><path id="路径 85" fill-rule="evenodd" style="fill:#000000" transform="translate(398.98136184809164 6.824026856551171)  rotate(0 4.381763068314626 4.378916458140736)" opacity="1" d="M4.44 0C6.72 0.03 8.58 1.81 8.75 4.05C8.76 4.16 8.77 4.27 8.76 4.39C8.76 4.45495 8.01376 4.42255 7.26565 4.39008L7.26564 4.39008L7.26562 4.39008L7.2656 4.39008C6.51623 4.35755 5.765 4.32495 5.76 4.39C5.85 6.17 8.44 6.31 8.74 4.77C8.49 7.05 6.55 8.8 4.22 8.76C1.82 8.67 -0.06 6.67 0 4.27C0.06 1.87 2.04 -0.03 4.44 0ZM8.74 4.77C8.76 4.65 8.77 4.53 8.76 4.39C8.76 4.52 8.75 4.65 8.74 4.77Z" /><path id="路径 86" fill-rule="evenodd" style="fill:#000000" transform="translate(410.78136533740576 6.823673540150281)  rotate(0 4.381231173229708 4.379006323512641)" opacity="1" d="M4.43 0C6.74 0.03 8.61 1.83 8.75 4.1C8.76 4.19 8.77 4.29 8.76 4.39C8.76 4.45495 8.01376 4.42255 7.26565 4.39008L7.26564 4.39008L7.26562 4.39008L7.2656 4.39008C6.51623 4.35755 5.765 4.32495 5.76 4.39C5.85 6.17 8.44 6.31 8.74 4.77C8.49 7.04 6.56 8.79 4.23 8.76C1.83 8.68 -0.05 6.68 0 4.28C0.06 1.88 2.03 -0.03 4.43 0ZM8.74 4.77C8.75 4.65 8.76 4.52 8.76 4.39C8.77 4.53 8.76 4.65 8.74 4.77Z" /><path id="路径 87" fill-rule="evenodd" style="fill:#FFFFFF" transform="translate(355.60135756562386 29.835729829572387)  rotate(0 6.751235059120745 6.7483318447357306)" opacity="1" d="M13.49 7.09C13.24 10.73 10.18 13.57 6.5 13.5C2.81 13.36 -0.09 10.27 0 6.58C0.1 2.88 3.15 -0.05 6.84 0C10.46 0.05 13.38 2.94 13.5 6.53L13.5 6.77C13.51 6.88 13.5 6.99 13.49 7.09ZM13.5 6.77C13.5 6.725 13.5025 6.7425 13.5037 6.7625C13.505 6.7825 13.505 6.805 13.5 6.77Z" /><path id="路径 88" fill-rule="evenodd" style="fill:#FFFFFF" transform="translate(398.9313575656238 38.96572982957238)  rotate(0 6.751235059120631 6.748331844735702)" opacity="1" d="M13.49 7.09C13.24 10.73 10.18 13.57 6.5 13.5C2.81 13.36 -0.09 10.27 0 6.58C0.1 2.88 3.15 -0.05 6.84 0C10.46 0.05 13.38 2.94 13.5 6.53L13.5 6.77C13.51 6.88 13.5 6.99 13.49 7.09ZM13.5 6.77C13.5 6.725 13.5025 6.7425 13.5037 6.7625C13.505 6.7825 13.505 6.805 13.5 6.77Z" /><path id="路径 89" fill-rule="evenodd" style="fill:#000000" transform="translate(412.4513825451047 19.021111111111082)  rotate(0 8.029999999999973 1.5)" opacity="1" d="M14.56,3C15.39,3 16.06,2.33 16.06,1.5C16.06,0.67 15.39,0 14.56,0L1.5,0C0.67,0 0,0.67 0,1.5C0,2.33 0.67,3 1.5,3L14.56,3Z " /><path id="路径 90" fill-rule="evenodd" style="fill:#000000" transform="translate(337.83138254510504 19.021111111111082)  rotate(0 39.764999999999986 1.5)" opacity="1" d="M78.03,3C78.86,3 79.53,2.33 79.53,1.5C79.53,0.67 78.86,0 78.03,0L1.5,0C0.67,0 0,0.67 0,1.5C0,2.33 0.67,3 1.5,3L78.03,3Z " /><path id="路径 91" fill-rule="evenodd" style="fill:#000000" transform="translate(409.73857359933254 44.678578639681916)  rotate(0 3.921386121910018 3.03987375737681)" opacity="1" d="M5.23,5.69C6.68,6.95 8.81,4.84 7.35,3.57C5.81,2.23 4.1,1.09 2.27,0.17C0.55,-0.69 -0.97,1.9 0.76,2.77C2.37,3.55 3.87,4.53 5.23,5.69Z " /><path id="路径 92" fill-rule="evenodd" style="fill:#000000" transform="translate(365.5393251466339 38.236125482921864)  rotate(0 18.14298544986218 6.940475715358744)" opacity="1" d="M35.26,7.76C37.08,7.13 36.26,4.23 34.47,4.86C29.89,6.44 25.86,9.14 21.08,10.24C17.72,11.02 14.21,11.18 11.02,9.72C6.97,7.86 5.22,3.72 2.49,0.5C1.25,-0.99 -0.86,1.15 0.37,2.62L0.32,2.64C3.06,5.91 4.78,9.74 8.63,11.95C11.58,13.53 14.94,14.16 18.26,13.76C24.55,13.18 29.43,9.76 35.26,7.76Z " /><path id="路径 93" fill-rule="evenodd" style="fill:#000000" transform="translate(347.2126104001218 29.793807340974382)  rotate(0 6.314079970947091 2.433563731860147)" opacity="1" d="M10.84,4.75C12.62,5.49 13.4,2.59 11.63,1.86C8.43,0.42 4.93,-0.2 1.43,0.06C-0.46,0.29 -0.49,3.3 1.43,3.06C4.66,2.82 7.89,3.4 10.84,4.75Z " /><path id="路径 94" fill-rule="evenodd" style="fill:#000000" transform="translate(227.6102714339936 277.12)  rotate(0 71.06762853780435 53.19944444444445)" opacity="1" d="M48.76,1.61C48.76,0.78 48.09,0.11 47.26,0.11C35.67,0.11 24.06,-0.14 12.48,0.11C5.72,0.26 0.62,4.57 0.23,11.51C0.07,14.37 0.23,17.29 0.23,20.15L0.23,63.5C0.23,73.77 -0.29,84.21 0.23,94.5C0.56,101.11 5.07,105.77 11.72,106.14C14.1,106.27 16.53,106.14 18.92,106.14L56.77,106.14C81.11,106.14 105.54,106.72 129.88,106.14C144.39,105.79 141.97,90.22 142,80.14L142.11,39.59C142.11,38.76 141.44,38.09 140.61,38.09C139.78,38.09 139.11,38.76 139.11,39.59L139.1,39.61L139.01,70.61L139.01,89.61C139.01,95.7 138.8,102.5 130.6,103.03C124.15,103.44 117.54,103.03 111.08,103.03L16.39,103.03C14.2,103.03 11.59,103.33 9.39,102.73C3.33,101.05 3.23,95.44 3.23,90.44L3.23,15.24C3.23,9.34 4.38,3.54 11.93,3.11C23.63,2.45 35.54,3.11 47.26,3.11C48.09,3.11 48.76,2.44 48.76,1.61Z " /><path id="路径 95" fill-rule="evenodd" style="fill:#000000" transform="translate(255.98381676936674 324.17109515381856)  rotate(0 9.820258923901065 9.80993556126461)" opacity="1" d="M19.61 10.24C19.15 15.55 14.96 19.85 9.37 19.61C4.04 19.37 -0.12 14.91 0 9.58C0.13 4.25 4.49 -0.01 9.83 0C15.23 0 19.14 4.25 19.61 9.39C19.62 9.53 19.63 9.68 19.64 9.82C19.65 9.97 19.64 10.11 19.61 10.24ZM19.64 9.82C19.645 9.745 19.6525 9.7775 19.655 9.8125C19.6575 9.8475 19.655 9.885 19.64 9.82Z" /><path id="路径 96" fill-rule="evenodd" style="fill:#000000" transform="translate(324.6541061734447 338.6511083938995)  rotate(0 9.81986075521047 9.810321281897416)" opacity="1" d="M19.61 10.22C19.16 15.55 14.96 19.86 9.37 19.61C4.04 19.37 -0.12 14.92 0 9.58C0.12 4.25 4.48 0 9.82 0C15.23 0 19.14 4.27 19.61 9.4C19.63 9.53 19.65 9.67 19.64 9.82C19.64 9.96 19.64 10.1 19.61 10.22Z" /><path id="路径 97" fill-rule="evenodd" style="fill:#000000" transform="translate(227.83138254510482 307.0011111111111)  rotate(0 27 1.5)" opacity="1" d="M52.5,3C53.33,3 54,2.33 54,1.5C54,0.67 53.33,0 52.5,0L1.5,0C0.67,0 0,0.67 0,1.5C0,2.33 0.67,3 1.5,3L52.5,3Z " /><path id="路径 98" fill-rule="evenodd" style="fill:#000000" transform="translate(341.78857359933227 347.64855168931365)  rotate(0 5.316386121910114 3.9623509959489525)" opacity="1" d="M8.02,7.54C9.47,8.79 11.6,6.68 10.14,5.42C7.75,3.35 5.11,1.59 2.27,0.17C0.55,-0.69 -0.97,1.9 0.76,2.76C3.37,4.05 5.81,5.66 8.02,7.54Z " /><path id="路径 99" fill-rule="evenodd" style="fill:#000000" transform="translate(271.6092399750046 337.52572041094106)  rotate(0 27.92055207810222 10.088489726419283)" opacity="1" d="M13.92,17.53C18.38,19.75 23.41,20.6 28.35,19.98C38.13,18.98 45.8,13.66 54.82,10.54C56.63,9.92 55.82,7.02 54.02,7.65C46.22,10.34 39.41,14.94 31.15,16.54C25.87,17.54 20.29,17.45 15.43,14.94C9.35,11.81 6.76,5.47 2.5,0.5C1.24,-0.97 -0.87,1.16 0.38,2.62C4.89,7.88 7.51,14.15 13.92,17.53Z " /><path id="路径 100" fill-rule="evenodd" style="fill:#000000" transform="translate(242.6563726768204 324.01463760031584)  rotate(0 9.178312442202468 2.991662468335335)" opacity="1" d="M16.57,5.87C18.35,6.6 19.13,3.7 17.37,2.97C12.49,0.97 6.77,-0.49 1.43,0.16C-0.46,0.39 -0.48,3.39 1.43,3.16C6.55,2.54 11.89,3.93 16.57,5.87Z " /><path id="路径 101" fill-rule="evenodd" style="fill:#000000" transform="translate(166.92138254510473 84.23111037201966)  rotate(0 47.45118048912968 27.09959294537191)" opacity="1" d="M2.44,3L43.19,3C57.31,3 71.79,2.06 85.89,3C91.39,3.37 91.44,6.33 91.43,10.43L91.43,23.53L91.37,38.38C91.37,41.17 91.84,44.47 91.37,47.23C90.43,52.41 80.64,51 76.7,51L1.5,51C0.67,51 0,51.67 0,52.5C0,53.33 0.67,54 1.5,54L76.37,54C80.91,54 88.02,55.1 91.87,52.13C94.37,50.2 94.37,47.82 94.38,45L94.43,31.95C94.43,23.67 95.43,14.76 94.52,6.52C93.78,-0.02 86.97,0 81.86,0L2.44,0C1.61,0 0.94,0.67 0.94,1.5C0.94,2.33 1.61,3 2.44,3Z " /><path id="路径 102" fill-rule="evenodd" style="fill:#000000" transform="translate(170.06552957816984 94.09994969059142)  rotate(0 16.40243606242518 17.142919552343756)" opacity="1" d="M29.54,19.64C27.22,32.96 9.93,35.36 2.84,24.56C1.84,22.95 -0.81,24.45 0.25,26.07C8.82,39.14 29.82,36.23 32.54,20.07C35.32,3.54 15.92,-5.93 3.6,4.13C2.1,5.35 4.24,7.46 5.72,6.25L5.72,6.24C16,-2.13 31.89,6.15 29.54,19.64Z " /><path id="路径 103" fill-rule="evenodd" style="fill:#000000" transform="translate(206.67609089448297 95.63434921674241)  rotate(0 22.24517882485077 4.583120409477232)" opacity="1" d="M10.92 0.1L38.11 0.1C38.3959 0.1 38.7002 0.0894458 39.0148 0.078538C40.6367 0.0222944 42.5298 -0.0433514 43.56 1.28C44.42 2.54 44.7 4.12 44.33 5.6C44.02 6.84 43.28 7.92 42.25 8.65C42.09 8.82 41.88 8.95 41.65 9.02C41.64 9.03 41.62 9.04 41.61 9.05C41.24 9.2 40.92 9.2 40.65 9.1L16.78 9.1C15.4733 9.1 14.1667 9.10556 12.86 9.11111L12.8598 9.11111C10.2466 9.12222 7.63328 9.13333 5.02 9.1C2.78 9.07 0.81 8.93 0.24 6.3C-1.20565 -0.292502 4.29582 -0.104745 8.93745 0.0536681C9.62569 0.0771566 10.295 0.1 10.92 0.1Z" /><path id="路径 104" fill-rule="evenodd" style="fill:#000000" transform="translate(206.48101539407935 107.17160442740942)  rotate(0 22.33297573980053 4.564492804143725)" opacity="1" d="M5.6 9.07L40.65 9.07C40.9 9.16 41.19 9.15 41.53 9.03C41.75 8.97 41.96 8.86 42.14 8.72C44.51 7.25 45.74 3.3 43.44 1.01C42.2998 -0.122073 40.2442 -0.0336479 38.5752 0.0381479C38.1949 0.0545056 37.8347 0.07 37.51 0.07L11.22 0.07C10.7792 0.07 10.2884 0.0593086 9.76532 0.0479137C5.05555 -0.0546858 -2.27213 -0.214315 0.68 6.86C1.61 9.07 3.52 9.07 5.6 9.07Z" /><path id="路径 105" fill-rule="evenodd" style="fill:#000000" transform="translate(206.77323061106517 118.47222222222217)  rotate(0 14.177064312705625 4.64722222222224)" opacity="1" d="M24.57 9.18C24.79 9.24 25.02 9.25 25.25 9.21C28.11 8.43 29.05 4.89 27.84 2.21C26.8675 0.206703 25.0061 0.208303 23.1386 0.209909C23.0857 0.209955 23.0328 0.21 22.98 0.21L10.78 0.21C10.01 0.21 9.18573 0.159969 8.34398 0.108876C6.60578 0.00337225 4.79306 -0.106655 3.23 0.21C0.38 0.82 -0.46 3.59 0.23 6.29C0.92 8.99 2.78 9.09 5.07 9.18C9.47572 9.35024 13.9185 9.29327 18.3511 9.23643L18.3511 9.23643C20.428 9.20979 22.5025 9.18319 24.57 9.18Z" /><path id="路径 106" fill-rule="evenodd" style="fill:#000000" transform="translate(274.683560573711 119.65555555555545)  rotate(0 127.83891098569688 26.04777777777778)" opacity="1" d="M254.18,3.08C255.01,3.08 255.68,2.4 255.68,1.58C255.68,0.75 255.01,0.08 254.18,0.08L147.41,0.08C106.17,0.08 64.92,-0.09 23.67,0.08C12.43,0.13 2.14,6.64 0.42,18.48C-0.35,23.72 0.18,29.33 0.18,34.6L0.18,50.6C0.18,51.42 0.85,52.1 1.68,52.1C2.51,52.1 3.18,51.42 3.18,50.6L3.18,50.58C3.18,41.14 3.07,31.69 3.18,22.26C3.32,10.45 12.3,3.12 23.57,3.08C37.98,3.02 52.38,3.08 66.79,3.08L254.18,3.08Z " /><path id="路径 107" fill-rule="evenodd" style="fill:#000000" transform="translate(274.66249365621593 181.2311111111111)  rotate(0 87.37944444444429 67.715)" opacity="1" d="M174.76,133.5C174.76,132.67 174.09,132 173.26,132L173.2,132L52.49,132.34L27.03,132.42C25.35,132.42 23.66,132.48 22.03,132.42C13.67,132.18 6.2,127.14 3.91,118.85C2.29,112.98 3.25,105.76 3.25,99.77L3.25,1.5C3.25,0.67 2.58,0 1.75,0C0.92,0 0.25,0.67 0.25,1.5L0.25,56.72C0.25,75.72 -0.31,94.86 0.25,113.88C0.62,126.33 10.25,135.34 22.59,135.43C28.78,135.43 34.97,135.43 41.16,135.38L117.26,135.16L173.26,135C174.09,135 174.76,134.33 174.76,133.5Z " /><path id="路径 108" fill-rule="evenodd" style="fill:#000000" transform="translate(299.88294424880587 138.88090110470677)  rotate(0 11.400441717529588 11.361623584437382)" opacity="1" d="M22.77 11.77C22.25 17.98 17.4 23.01 10.89 22.71C4.7 22.45 -0.14 17.28 0 11.09C0.15 4.9 5.23 -0.04 11.43 0C17.73 0 22.27 4.97 22.77 10.97C22.78 11.1 22.79 11.24 22.8 11.37C22.81 11.52 22.8 11.65 22.77 11.77ZM22.8 11.37C22.805 11.295 22.81 11.325 22.8112 11.3588C22.8125 11.3925 22.81 11.43 22.8 11.37Z" /><path id="路径 109" fill-rule="evenodd" style="fill:#000000" transform="translate(332.4029442488061 138.88090110470677)  rotate(0 11.40069042833511 11.361623584437382)" opacity="1" d="M22.77 11.79C22.24 17.99 17.39 23.01 10.89 22.71C4.7 22.45 -0.14 17.28 0 11.09C0.15 4.9 5.23 -0.04 11.43 0C17.72 0 22.26 4.97 22.77 10.95L22.8 11.37C22.81 11.52 22.8 11.66 22.77 11.79ZM22.8 11.37C22.805 11.295 22.8125 11.3275 22.815 11.3625C22.8175 11.3975 22.815 11.435 22.8 11.37Z" /><path id="路径 110" fill-rule="evenodd" style="fill:#000000" transform="translate(362.6029442488061 138.88090110470677)  rotate(0 11.400441717529702 11.361623584437382)" opacity="1" d="M22.77 11.78C22.24 17.98 17.39 23.01 10.89 22.71C4.7 22.45 -0.14 17.28 0 11.09C0.15 4.9 5.23 -0.04 11.43 0C17.72 0 22.27 4.97 22.77 10.97C22.78 11.1 22.79 11.23 22.8 11.37C22.81 11.52 22.8 11.65 22.77 11.78ZM22.8001 11.368C22.8051 11.2955 22.81 11.3253 22.8112 11.3588C22.8125 11.3925 22.81 11.43 22.8 11.37C22.795 11.3 22.7975 11.3325 22.8 11.3663L22.8001 11.368Z" /><path id="路径 111" fill-rule="evenodd" style="fill:#000000" transform="translate(281.3613825451048 175.7311111111111)  rotate(0 127.5 1.5)" opacity="1" d="M253.5,3C254.33,3 255,2.33 255,1.5C255,0.67 254.33,0 253.5,0L168.23,0L32.5,0L1.5,0C0.67,0 0,0.67 0,1.5C0,2.33 0.67,3 1.5,3L86.77,3L222.5,3L253.5,3Z " /><path id="路径 112" fill-rule="evenodd" style="fill:#000000" transform="translate(362.27669701234663 264.62978518539154)  rotate(0 10.048994787198694 6.875118081134758)" opacity="1" d="M0.05,6.61C0.47,9.78 4.05,11.41 6.74,12.26C10.42,13.44 15.34,14.42 19.07,13.16C20.89,12.54 20.07,9.65 18.27,10.26C14.91,11.4 8.05,10.45 5.05,8.26C-0.6,4.2 7.43,2.59 10.18,3C12.07,3.28 12.88,0.39 10.98,0.1L10.98,0.15C6.63,-0.49 -0.71,0.76 0.05,6.61Z " /><path id="路径 113" fill-rule="evenodd" style="fill:#000000" transform="translate(371.41388254510457 263.6844169704439)  rotate(0 30.938126230310786 7.529109419169004)" opacity="1" d="M24.15,3.05C37.09,3.63 47.59,13.56 60.45,15.05C62.36,15.27 62.35,12.27 60.45,12.05C47.61,10.58 37.21,0.58 24.15,0.05C16.6,-0.24 9,0.91 1.45,1.05C-0.48,1.05 -0.48,4.05 1.45,4.05C8.99,3.93 16.6,2.74 24.15,3.05Z " /><path id="路径 114" fill-rule="evenodd" style="fill:#000000" transform="translate(362.4326300844832 276.69402115737694)  rotate(0 10.194793267796967 5.563296848097167)" opacity="1" d="M1.43,8.04C-0.48,7.82 -0.47,10.82 1.43,11.04C8.66,11.86 14.72,6.89 19.89,2.5C21.37,1.25 19.24,-0.86 17.77,0.38C13.19,4.27 7.85,8.77 1.43,8.04Z " /><path id="路径 115" fill-rule="evenodd" style="fill:#000000" transform="translate(350.609153890822 280.1073586760543)  rotate(0 15.820916634544801 7.875586958861447)" opacity="1" d="M14.57,12.6C11.9,12.56 9.37,11.37 7.64,9.33C6.11,7.74 2.84,3.97 3.01,1.44C3.14,-0.49 0.14,-0.48 0.01,1.44C-0.34,6.71 6.9,14.51 11.85,15.44C18.1,16.66 26.1,14.1 31.01,10.39C32.53,9.23 31.01,6.63 29.49,7.79L29.49,7.82C25.17,11 19.93,12.68 14.57,12.6Z " /><path id="路径 116" fill-rule="evenodd" style="fill:#000000" transform="translate(367.37166803742457 293.66953178722065)  rotate(0 9.960287260701989 3.598386121668625)" opacity="1" d="M8.88,7.19C12.88,7.08 16.08,5.04 19.25,2.86C20.83,1.77 19.33,-0.83 17.73,0.26C16,1.61 14.1,2.72 12.08,3.56C9.38,4.56 3.75,4.85 2.94,1.16C2.52,-0.72 -0.37,0.07 0.04,1.96C0.93,5.96 5.17,7.29 8.88,7.19Z " /><path id="路径 117" fill-rule="evenodd" style="fill:#000000" transform="translate(376.4166614175251 295.7645475389246)  rotate(0 8.989878306174319 3.8272527622065695)" opacity="1" d="M17.5,2.53C18.93,1.23 16.81,-0.89 15.38,0.41C13.08,2.49 4.84,7.41 2.74,2.71C1.95,0.95 -0.64,2.48 0.14,4.23C3.27,11.23 13.8,5.88 17.5,2.53Z " /><path id="路径 118" fill-rule="evenodd" style="fill:#000000" transform="translate(397.43637267682016 294.72332782547926)  rotate(0 16.430631158028405 4.0112607676499294)" opacity="1" d="M31.43,3.01C33.34,2.83 33.35,-0.17 31.43,0.01C21.43,0.94 11.43,3.72 1.43,5.01C-0.46,5.25 -0.48,8.26 1.43,8.01C11.43,6.72 21.43,3.94 31.43,3.01Z " /><path id="路径 119" fill-rule="evenodd" style="fill:#000000" transform="translate(383.3297620378869 299.6970743831523)  rotate(0 9.477462274428717 2.981750385179339)" opacity="1" d="M17.93,2.98C19.75,2.36 18.93,-0.53 17.13,0.08C14.35,1.02 4.88,5.08 2.83,1.77C1.83,0.14 -0.79,1.64 0.23,3.29C3.59,8.68 13.43,4.49 17.93,2.98Z " /><path id="路径 120" fill-rule="evenodd" style="fill:#000000" transform="translate(506.88148713851615 16.970542151457664)  rotate(0 78.10893043097155 114.77528447982671)" opacity="1" d="M60.99,172.92C62.38,180.76 59.56,188.76 53.55,193.99C46.26,200.19 34.63,202.21 31.25,211.16C29.13,216.92 31.49,223.37 36.83,226.4C42.53,229.71 47.83,227.22 53.25,225.95C69.98,222.95 85.63,229.07 102.25,229.55C108.49,229.55 114.01,229.26 119.4,225.97C124.5,223.08 130.33,221.73 136.19,222.08C141.48,222.59 145.52,223.53 150.77,221.21C152.58,220.54 154.12,219.32 155.19,217.71C155.98,216.06 156.32,214.23 156.19,212.4C156.19,207.03 155.64,201.47 152.97,196.82C150.68,192.82 150.39,188.52 147.55,184.65C146.63,183.4 145.55,182.24 144.78,180.92C142.24,176.77 142.21,171.56 142.9,166.74C143.59,161.92 144.9,157.17 144.9,152.31C144.86,150.14 144.6,147.98 144.14,145.86C142.82,139.45 140.22,131.38 136.84,125.68C132.94,119.14 124.84,115.39 120.17,109.27C111.17,97.44 109.89,79.09 113.94,65.27C116.5,56.54 114.81,40.59 109.94,32.27C106.26,25.98 98.61,14.78 92.94,10.27C78.88,-0.9 58.44,-1.23 43.94,1.27C16.69,5.97 10.19,16.02 6.94,19.27C4.98,21.26 2.98,25.26 1.98,27.26C-2.57,36.37 -0.02,52.26 17.48,54.76C17.18,65.25 19.45,75.65 24.1,85.05C28.1,92.81 41.83,93.72 48.98,97.26C64.81,105.1 61.98,113.26 60.98,122.26C60.1,130.17 51.91,137.82 51.65,145.77C51.34,155.42 59.2,163.44 60.99,172.92Z " /><path id="路径 121" fill-rule="evenodd" style="fill:#000000" transform="translate(505.40251628640317 15.398143760384414)  rotate(0 79.65088509397629 116.31683250424017)" opacity="1" d="M17.44 57.57C17.43 63.36 18.13 69.13 19.54 74.74C20.84 79.83 22.62 86.44 26.44 90.28C33.33 97.22 44.7 96.93 52.82 101.81C57.32 104.52 61.17 108.12 61.74 113.58C62.13 118.25 61.55 122.94 60.04 127.37C58.2 132.37 54.73 136.66 52.87 141.68C50.82 147.2 51.75 152.57 53.96 157.9C56.3 163.54 59.96 168.79 61.03 174.9C62.26 182.22 59.58 189.66 53.97 194.51C46.83 200.58 35.18 202.41 31.43 211.98C29.89 216.11 30.35 220.73 32.69 224.47C35.02 228.21 38.96 230.65 43.35 231.08C46.25 231.14 49.14 230.72 51.9 229.83C55.82 228.8 59.85 228.26 63.9 228.2C70.7797 228.129 77.5805 229.24 84.3376 230.344C85.1924 230.483 86.0465 230.623 86.9 230.76C93.54 231.82 100.26 232.85 107.01 232.59C109.79 232.55 112.56 232.19 115.27 231.53C118.79 230.58 121.64 228.53 124.99 227.17C130.817 224.877 136.247 225.247 142.29 225.66L142.58 225.68C147.52 226.01 153.67 225.24 157.07 221.19C160.07 217.61 159.36 211.77 158.82 207.52C158 201.07 154.82 194.66 152.19 188.8C150.98 186.16 148.99 184.21 147.55 181.74C145.9 178.63 145.2 175.09 145.55 171.58C145.69 168.77 146.172 166.035 146.651 163.313C147.41 159.011 148.162 154.739 147.55 150.25C146.15 139.34 142.02 127.16 133.55 119.75C128.77 115.55 123.75 112.12 120.48 106.49C117.2 100.6 115.27 94.06 114.84 87.33C114.361 81.4347 115.366 75.7966 116.37 70.1649C117.295 64.9733 118.22 59.7871 117.98 54.41C117.57 44.5 114.33 34.9 108.66 26.76C101.89 16.66 94.54 8.12 82.84 3.76C71.14 -0.6 58.31 -0.74 46.21 1.16C28.07 4 10.63 11 2.05 28.05C1.94 28.27 1.89 28.49 1.88 28.7C-3.81 41.76 4 54.7 17.44 57.57Z" /><path id="路径 122" fill-rule="evenodd" style="fill:#000000" transform="translate(510.3542464044608 64.73111111111109)  rotate(0 25.960878091491168 32.00811821257304)" opacity="1" d="M21.24,55.81C4.54,44.38 2.87,19.7 3.01,1.5C3.01,0.67 2.34,0 1.51,0C0.68,0 0.01,0.67 0.01,1.5C-0.14,20.73 1.94,45.76 19.17,58.01C28.17,64.39 40.6,65.66 50.91,61.95C52.71,61.3 51.91,58.4 50.11,59.05C40.73,62.43 29.52,61.48 21.24,55.81Z " /><path id="路径 123" fill-rule="evenodd" style="fill:#000000" transform="translate(557.4228981307976 124.68925994957812)  rotate(0 2.7515971600380453 8.962120888366712)" opacity="1" d="M1.99,16.14C1.85,16.91 2.32,17.66 3.07,17.87C3.83,18.08 4.61,17.68 4.89,16.94C6.41,11.65 4.89,5.7 2.74,0.78C1.96,-0.98 -0.62,0.54 0.14,2.3C1.91,6.3 3.28,11.69 1.99,16.14Z " /><path id="路径 124" fill-rule="evenodd" style="fill:#000000" transform="translate(490.0389688719729 244.97359887510714)  rotate(0 63.898322965825514 162.37875611800195)" opacity="1" d="M125.2 112.49C128.57 124.12 128.14 136.61 126.8 148.49C124.17 171.83 118.58 194.94 113.58 217.83C105.84 253.19 97.72 288.47 89.23 323.66C89.04 324.3 88.45 324.75 87.78 324.76L4.78 324.76C3.96 324.74 3.3 324.08 3.28 323.26C2.83 313.82 2.46 304.3 2.11 294.82L2.00749 292.081C0.669791 256.346 -0.673337 220.466 0.37 184.72C1.53 150.49 5.54 116.42 12.37 82.86C12.75 80.97 15.64 81.77 15.27 83.66C12.58 97.37 10.43 111.22 8.58 125.07C0.0120423 189.33 3.08757 254.622 6.13066 319.226L6.25 321.76L86.62 321.76C89.91 308.06 93.16 294.36 96.35 280.65C102.02 256.27 107.57 231.87 112.8 207.4C117.94 183.38 124.65 158.25 124.8 133.57C124.86 123.7 123.5 113.79 119.04 104.89C116.13 99.09 112.73 93.75 110.25 87.75C105.02 75.49 102.79 62.16 103.75 48.87C105 32.16 111.96 17.09 116.22 1.09L116.18 1.06C116.42 0.28 117.23 -0.16 118.02 0.05C118.8 0.27 119.27 1.07 119.07 1.86C117.69 7.05011 116.087 12.1121 114.495 17.1378C110.204 30.6848 105.996 43.9686 106.47 58.79C107.02 71.39 110.52 83.69 116.69 94.7C119.95 100.49 123.33 106.03 125.2 112.49Z" /><path id="路径 125" fill-rule="evenodd" style="fill:#000000" transform="translate(512.3099685693835 137.58473042170112)  rotate(0 28.467359008680432 75.54842687814863)" opacity="1" d="M3,150.05C5.08,143.15 6.92,136.16 8.57,129.15C10.96,119.03 14.22,107.39 12.78,96.91C11.31,86.23 3.59,77.7 7.22,66.48C11.46,53.38 23.22,43.32 31.89,33.04C36.11,28.09 39.77,22.7 42.79,16.95C43.79,15.06 44.68,13.13 45.53,11.18C46.1,9.86 46.53,7.38 47.21,6.41C48.37,4.73 53.69,3.73 55.91,2.98C57.73,2.37 56.91,-0.53 55.11,0.09C52.49,0.98 49.11,1.61 46.68,3.01C44.99,4.01 44.92,4.8 44.12,6.81C41.4,13.78 37.78,20.38 33.35,26.42C25.57,36.89 15.8,45.62 8.74,56.69C5.48,61.81 2.9,67.64 3.09,73.84C3.24,78.74 5.09,83.2 6.93,87.68C11.55,99.24 9.6,110.29 7.07,122.16C5.13,131.27 2.8,140.33 0.07,149.25C-0.49,151.1 2.41,151.9 2.97,150.05L3,150.05Z " /><path id="路径 126" fill-rule="evenodd" style="fill:#000000" transform="translate(425.36089140863646 238.46496978368532)  rotate(0 83.88512554919112 50.28349979834482)" opacity="1" d="M109.96 99.52C101.47 97.74 93.05 95.1 84.66 92.92L1.05 71.22C0.28 70.96 -0.15 70.15 0.05 69.37L6.05 34.37C6.28 33.57 7.1 33.11 7.9 33.32C13.05 34.61 18.22 35.83 23.39 37.02C42.73 41.49 62.33 46.1 82.1 48.17C82.7752 48.2403 83.5287 48.3441 84.3312 48.4546C89.0083 49.0987 95.3523 49.9723 97.58 45.79C100.67 39.98 102.59 33.39 104.67 27.18C107.57 18.5 110.25 9.76 112.89 1L112.99 1.05C113.54 -0.79 116.44 0 115.88 1.85C112.69 12.32 109.48 22.79 105.88 33.12C104.13 38.07 102.52 45.53 98.88 49.53C95.8341 52.821 89.2413 52.0364 84.6869 51.4944C84.0378 51.4172 83.4301 51.3449 82.88 51.29C72.63 50.28 62.46 48.39 52.36 46.39C37.71 43.48 23.13 40.24 8.64 36.65L3.16 68.6L36.39 77.27L87 90.43C94.88 92.48 102.76 94.95 110.76 96.63C120.01 98.57 129.88 98.03 133.88 88.26C137.26 80.21 140.2 72 143.26 63.84C150.5 44.4 157.67 24.95 164.78 5.47C165.44 3.67 168.34 4.45 167.67 6.27C159.28 29.26 150.89 52.25 142.19 75.12C139.83 81.33 137.9 90.28 133.31 95.33C127.54 101.66 117.61 101.13 109.96 99.52Z" /><path id="路径 127" fill-rule="evenodd" style="fill:#000000" transform="translate(543.9679219359714 206.84872049591075)  rotate(0 3.1841907281119575 7.4199514256021075)" opacity="1" d="M0.04,12.98C-0.15,13.77 0.32,14.57 1.1,14.79C1.88,15 2.69,14.56 2.93,13.78C4.09,9.78 5.22,5.78 6.34,1.78C6.48,1.01 6.01,0.26 5.26,0.05C4.51,-0.15 3.72,0.25 3.44,0.98C2.34,4.98 1.2,8.98 0.04,12.98Z " /><path id="路径 128" fill-rule="evenodd" style="fill:#000000" transform="translate(564.8050315674564 311.2377539603849)  rotate(0 16.017782071684792 2.679651600023618)" opacity="1" d="M1.88,0.04C0,-0.39 -0.81,2.51 1.08,2.93C10.69,5.09 21.18,6.3 30.96,4.44C32.85,4.08 32.05,1.18 30.16,1.54C20.95,3.3 10.9,2.06 1.88,0.04Z " /><path id="路径 129" fill-rule="evenodd" style="fill:#000000" transform="translate(318.36393004210095 173.74373202427165)  rotate(0 87.49745250300373 56.47288453366633)" opacity="1" d="M174.26 52.19L71.08 6.73L56.26 0.19C55.54 -0.2 54.64 0.03 54.2 0.73L8.76 77.32L0.2 91.73C-0.21 92.45 0.03 93.36 0.74 93.79L40.74 112.79C42.48 113.61 44 111.02 42.26 110.19L3.63 91.84L43.64 24.41L56.12 3.39L157.92 48.25L171.37 54.18L142.2 105.73C141.85 106.44 142.11 107.3 142.79 107.69C143.47 108.09 144.35 107.9 144.8 107.25L174.8 54.25C175.2 53.53 174.96 52.62 174.26 52.19Z" /><path id="路径 130" fill-rule="evenodd" style="fill:#000000" transform="translate(318.38372023344095 186.730142670578)  rotate(0 20.4346386638922 40.49225366197277)" opacity="1" d="M14.03 1.1L0.03 79.1C-0.31 80.99 2.59 81.8 2.93 79.9L16.62 3.64L39.08 13C40.86 13.74 41.64 10.84 39.88 10.1L39.88 10.05L15.88 0.05C15.08 -0.16 14.26 0.31 14.03 1.1Z" /><path id="路径 131" fill-rule="evenodd" style="fill:#000000" transform="translate(507.3532224782484 567.8051713743039)  rotate(0 63.468114008039606 123.13630320173695)" opacity="1" d="M120.37,213.22L99.51,138.77L61.64,3.45L60.97,1.03C60.69,0.29 59.91,-0.11 59.15,0.1C58.4,0.31 57.93,1.06 58.07,1.83L89.39,113.72L111.83,193.92L119.94,222.92C121.23,227.51 123.34,232.48 123.94,237.23C125,245.4 112.01,242.92 107.74,242.92L47.83,242.92C44.63,242.92 41.11,243.34 37.93,242.92C33.93,242.39 32.18,238.61 35.7,235.79C36.97,234.93 38.31,234.18 39.7,233.53L56.87,223.75L71.24,215.58C74.53,213.7 79.56,212.01 81.66,208.72C84.22,204.72 80.97,199.38 79.46,195.54L55.91,135.64L4.01,3.64L3.01,1.01C2.31,-0.77 -0.59,0.01 0.11,1.81L0.06,1.83L46.99,121.16L73.99,189.79C75.65,194.02 78.49,198.86 79.32,203.35C80.32,208.72 73.8,210.67 70.32,212.68L57.1,220.21L39.1,230.44C35.83,232.3 31.41,233.95 30.85,238.2C29.54,248.2 43.85,245.93 49.64,245.93L92.31,245.93C101.53,245.93 111.13,246.71 120.31,245.93C127.79,245.3 127.62,239.12 126.1,233.69L120.37,213.22Z " /><path id="路径 132" fill-rule="evenodd" style="fill:#000000" transform="translate(578.4050797170216 778.699490603893)  rotate(0 22.961609465001175 6.456027105443752)" opacity="1" d="M45.22,2.83C46.86,1.83 45.35,-0.79 43.7,0.23C33.57,6.51 12.91,16.23 2.52,4.47C1.24,3.02 -0.88,5.15 0.4,6.59C11.79,19.44 33.87,9.85 45.22,2.83Z " /><path id="路径 133" fill-rule="evenodd" style="fill:#000000" transform="translate(478.2318415141108 581.7911013456186)  rotate(0 33.56477051549689 115.97000488274625)" opacity="1" d="M49.12,171.6C49.59,176.9 50.4,182.29 50.53,187.6C50.67,193.6 46.97,195.89 42.53,198.38L25.44,208L7.67,218C4.67,219.69 0.52,221.2 0.06,225.12C-0.62,230.91 4.66,231.94 8.98,231.94L65.63,231.94C66.46,231.94 67.13,231.27 67.13,230.44C67.13,229.61 66.46,228.94 65.63,228.94L15.03,228.94C12.37,228.94 8.72,229.59 6.1,228.94C-3.53,226.55 10.96,219.6 12.68,218.63L31.27,208.18C39.27,203.65 53.87,198.96 53.54,187.78C53.11,172.78 50.89,157.62 49.54,142.69L41.94,56.36L37.1,1.44C36.93,-0.47 33.93,-0.49 34.1,1.44L34.13,1.44L46.03,136.5L49.12,171.6Z " /><path id="路径 134" fill-rule="evenodd" style="fill:#000000" transform="translate(515.4080590962844 779.6817390156251)  rotate(0 24.417071152382846 5.183128042710166)" opacity="1" d="M48.21,2.9C49.71,1.73 48.21,-0.88 46.69,0.3C34.5,9.72 15.91,8.3 1.85,4.15C-0.01,3.6 -0.8,6.5 1.05,7.05C15.8,11.41 35.41,12.78 48.21,2.9Z " /><path id="路径 135" fill-rule="evenodd" style="fill:#000000" transform="translate(559.3493975895478 700.7873586760545)  rotate(0 3.5069849555568453 44.44375243505658)" opacity="1" d="M3.5,76.51L4.01,87.44C4.1,89.36 7.1,89.37 7.01,87.44L3.51,12.37L3,1.44C2.91,-0.48 -0.09,-0.49 0,1.44L0.01,1.44L3.5,76.51Z " /><path id="路径 136" fill-rule="evenodd" style="fill:#000000" transform="translate(281.18292421238766 396.91111111111115)  rotate(0 53.26441468422502 32.39469743270382)" opacity="1" d="M104.8,41.19C108.14,36.74 107.02,16.7 98.12,17.81C89.22,18.92 83.64,21.15 76.97,13.36C70.3,5.57 63.61,0 50.25,0C36.89,0 34.76,9.59 25.76,7.79C20.23,6.68 17.05,2.82 10.21,6.68C2.42,11.13 -6.49,27.83 6.87,35.62C20.23,43.41 12.44,56.77 22.46,60.11C32.48,63.45 24.68,44.53 32.46,42.3C40.24,40.07 45.81,45.64 54.72,40.07C63.63,34.5 71.42,37.85 75.87,43.41C80.32,48.97 84.78,51.21 89.23,50.09C93.68,48.97 85.89,62.34 90.34,64.56C94.79,66.78 100.34,52.32 100.34,45.64C100.34,44.53 101.46,45.64 104.8,41.19Z " /><path id="路径 137" fill-rule="evenodd" style="fill:#000000" transform="translate(279.65041096263667 395.39049581430015)  rotate(0 54.830689488814414 33.879309626119834)" opacity="1" d="M11.59 6.68C14.69 5.22 17.52 4.65 21.01 5.66C21.9376 5.92826 22.8445 6.26502 23.7458 6.59971C26.4394 7.59998 29.0828 8.58163 32.08 7.66C35.04 6.75 37.48 4.49 40.17 3.02C42.86 1.55 45.8 0.6 48.84 0.24C56.42 -0.69 64.08 1.08 70.48 5.24C76.83 9.57 81.09 18.73 89.42 19C91.0228 19.0495 92.7725 18.7324 94.5495 18.4104C98.1607 17.7559 101.885 17.081 104.72 19.42C107.96 22.1 108.99 26.94 109.42 30.93C109.85 34.92 109.93 39.93 107.68 43.46C106.65 45.08 103.9 46.33 103.1 47.8Q103.175 49.09 103.1 50.38C102.87 51.87 102.53 53.34 102.1 54.78C100.93 58.79 98.86 65.47 94.65 67.35C91.75 68.64 89.45 66.71 89.03 63.82C88.754 61.9482 89.2369 59.9351 89.6829 58.0758C89.7539 57.7795 89.824 57.4872 89.89 57.2C89.9412 56.9837 90.0395 56.6912 90.1487 56.3659C90.4232 55.5484 90.7674 54.5237 90.61 53.98C90.371 53.1333 90.1693 53.1678 89.5433 53.2749C89.2525 53.3246 88.8702 53.39 88.35 53.39C80.5 53.32 77.58 45.2 71.58 41.87C66.3165 38.9607 61.6126 40.9249 56.7826 42.9417C53.3448 44.3773 49.843 45.8395 46.03 45.59C45.0986 45.5307 44.0074 45.3462 42.8475 45.1501C39.5118 44.5861 35.6076 43.926 33.3 45.87C31.66 47.27 31.63 50.34 31.48 52.27C31.4361 52.8431 31.4142 53.4775 31.3913 54.1449C31.2889 57.1231 31.1638 60.7591 28.95 62.54C26.24 64.72 21.87 62.94 19.69 60.78C16.34 57.45 16.46 52.19 15.15 47.96C13.73 43.37 10.97 40.69 7.07 38.07C4.82 36.67 2.95 34.73 1.64 32.42C-3.09 23.54 3.14 11.74 10.98 6.9C11.19 6.77 11.39 6.7 11.59 6.68Z" /><path id="路径 138" fill-rule="evenodd" style="fill:#000000" transform="translate(303.24663232273906 456.70735867605424)  rotate(0 36.012375111182905 25.97458689183412)" opacity="1" d="M53.41,43.84C44.13,50.46 31.72,50.65 22.23,44.33C13.95,38.59 9.33,28.69 6.5,19.33C4.68,13.52 3.51,7.52 3,1.44C2.86,-0.48 -0.14,-0.49 0,1.44L0,1.43C1.09,16.89 6.4,35.59 18.94,45.6C27.87,52.49 39.86,53.88 50.12,49.23C59.64,44.89 65.35,35.59 68.49,25.97C70.75,19.13 71.94,11.97 72.02,4.76C72.02,3.94 71.35,3.26 70.52,3.26C69.7,3.26 69.02,3.94 69.02,4.76C69.02,18.35 64.8,35.38 53.41,43.84Z " /><path id="路径 139" fill-rule="evenodd" style="fill:#000000" transform="translate(313.1913825451047 458.8611111111111)  rotate(0 11.001222569380161 12.622787821571706)" opacity="1" d="M21.87 13.35C21.3 19.46 17.23 25.6 10.41 25.23C4.07 24.88 0 18.63 0 12.63C0.07 6.51 4.36 0 11 0C17.88 0 21.7 6.52 22 12.63C22.01 12.91 21.96 13.15 21.87 13.35Z" /><path id="路径 140" fill-rule="evenodd" style="fill:#000000" transform="translate(348.8613825451048 458.8611111111111)  rotate(0 11.000992477778368 12.622787821571706)" opacity="1" d="M10.41 25.23C17.25 25.6 21.32 19.43 21.88 13.31C21.97 13.12 22.01 12.89 22 12.63C21.7 6.52 17.88 0 11 0C4.36 0 0.06 6.51 0 12.63C0 18.63 4.07 24.88 10.41 25.23Z" /><path id="路径 141" fill-rule="evenodd" style="fill:#000000" transform="translate(332.1913825451047 465.54111111111104)  rotate(0 9.850000000000023 1.5)" opacity="1" d="M18.2,3C19.03,3 19.7,2.33 19.7,1.5C19.7,0.67 19.03,0 18.2,0L1.5,0C0.67,0 0,0.67 0,1.5C0,2.33 0.67,3 1.5,3L18.2,3Z " /><path id="路径 142" fill-rule="evenodd" style="fill:#000000" transform="translate(353.315681296461 501.20496599122646)  rotate(0 29.988107341098384 30.37383150114107)" opacity="1" d="M14.89 24.46C5.77 23.3 4.41 11.01 4.73 3.19C19.62 2.65 35.98 2.19 50.32 6.24C66.7 10.94 47.93 28.54 41.49 33.84C29.29 43.84 15.07 51.42 0.78 58.01C-0.97 58.81 0.55 61.4 2.29 60.6C16.29 54.14 30.1 46.75 42.21 37.1C48.65 31.97 55.69 25.7 58.86 17.87C65.1725 2.26673 43.249 1.15422 32.1533 0.591169C31.4018 0.553036 30.7 0.517423 30.06 0.48C21.17 -0.04 12.22 -0.13 3.32 0.19C2.5 0.21 1.84 0.87 1.82 1.69C1.12 11.39 3.13 25.92 14.89 27.41C16.8 27.65 16.79 24.64 14.89 24.41L14.89 24.46Z" /><path id="路径 143" fill-rule="evenodd" style="fill:#000000" transform="translate(309.9152412176786 521.7572891514571)  rotate(0 29.944946881241208 12.004613091160422)" opacity="1" d="M1.85 0.07C13.59 3.7 26.12 10.2 33.64 20.22C40.2 13.75 49.2 5.48 58.45 5.02C60.38 4.92 60.37 7.92 58.45 8.02C49.57 8.47 40.51 17.58 34.51 23.58C34.17 23.9 33.71 24.06 33.25 24C32.8 23.94 32.39 23.68 32.15 23.28C25.27 13.08 12.59 6.53 1.05 2.97C-0.79 2.4 0 -0.5 1.85 0.07Z" /><path id="路径 144" fill-rule="evenodd" style="fill:#000000" transform="translate(267.3974461339599 499.75126178002404)  rotate(0 33.343629929982285 30.623374045381524)" opacity="1" d="M51.02 26.54C49.52 27.72 47.38 25.61 48.9 24.42C53.32 21.08 55.96 15.9 56.07 10.37C56.1227 9.06006 55.9283 7.78911 55.7352 6.52579C55.6349 5.86993 55.5349 5.21614 55.47 4.56C55.1 4.54 54.74 4.47 54.39 4.37C52.47 4.14 50.54 3.93 48.61 3.76C35.58 2.57 -11 0.51 6.78 25.36C14.99 36.83 29.44 43.85 41.99 49.42C49.66 52.87 57.54 55.82 65.58 58.24L65.63 58.28C67.48 58.83 66.69 61.72 64.83 61.18C55.54 58.37 46.46 54.88 37.67 50.75C25.78 45.25 12.78 38.37 4.78 27.65C-0.52 20.55 -2.94 10.63 5.69 5.17C14.32 -0.29 26.6 -0.14 36.42 0.08C43.41 0.22 50.37 0.79 57.28 1.79C57.77 1.93 58.14 2.31 58.28 2.79C60.68 11.43 58.13 20.96 51.02 26.54Z" /><path id="路径 145" fill-rule="evenodd" style="fill:#000000" transform="translate(246.78138254510486 604.641111111111)  rotate(0 96.53999999999996 64.04500000000002)" opacity="1" d="M191.58 128.09C192.41 128.09 193.08 127.42 193.08 126.59C193.08 126.47 193.07 126.36 193.04 126.24L193.04 16.4C193.04 10.21 191.43 4.26 185.24 1.4C182.367 0.0503484 179.304 0.0806086 176.229 0.11098C175.773 0.115489 175.316 0.12 174.86 0.12L45.56 0.12C42.0681 0.12 38.5719 0.0900254 35.0741 0.0600381C28.0741 2.54322e-05 21.0681 -0.0600381 14.08 0.12C6.28 0.32 0.46 5.79 0.08 13.65C-0.0400698 16.1915 4.65934e-05 18.7508 0.0400698 21.3041C0.0600465 22.5785 0.08 23.8515 0.08 25.12L0.08 126.59C0.09 127.41 0.76 128.08 1.58 128.09L191.58 128.09Z" /><path id="路径 146" fill-rule="evenodd" style="fill:#000000" transform="translate(201.044512536615 529.7256700969496)  rotate(0 38.87843988699103 86.95962426938183)" opacity="1" d="M52.49,12.09C59.32,6.71 67.64,3.54 76.32,3.01C78.23,2.86 78.25,-0.14 76.32,0.01C60.32,1.27 46.92,9.8 39.32,24.01C33.89,34.21 29.19,44.83 24.7,55.47C18.43,70.12 12.97,85.11 8.33,100.37C4.1,114.5 0.41,129.26 0.03,144.08C-0.24,154.81 1.38,167.8 11.55,173.77C12.26,174.11 13.11,173.85 13.51,173.17C13.91,172.49 13.72,171.61 13.07,171.17C4.15,165.95 2.87,154.33 3.01,144.97C3.21,131.43 6.41,117.97 10.11,104.97C17.57,79.2 27.41,54.18 39.49,30.23C42.87,23.47 46.49,16.97 52.49,12.09Z " /><path id="路径 147" fill-rule="evenodd" style="fill:#000000" transform="translate(396.92137277961206 532.6380198111061)  rotate(0 40.35970166159609 89.01197565686442)" opacity="1" d="M66.99,86.95C61.82,71.68 55.83,56.69 49.04,42.05C44.04,31.34 39.04,17.74 30.13,9.68C22.21,2.82 11.89,-0.62 1.44,0.09C-0.47,0.24 -0.49,3.25 1.44,3.09C9.96,2.51 18.43,4.85 25.44,9.73C35.02,16.6 40.02,29.92 44.92,40.28C58.16,68.28 69.37,98.05 75.04,128.59C77.99,144.44 80.82,161.72 71.11,175.83C70.02,177.43 72.62,178.93 73.71,177.35C82.08,165.16 81.41,151.6 79.51,137.58C77.18,120.33 72.51,103.42 66.99,86.95Z " /><path id="路径 148" fill-rule="evenodd" style="fill:#000000" transform="translate(150.65322688392462 699.6866469380648)  rotate(0 48.56063145942824 43.02322456430136)" opacity="1" d="M19.33,6.23C24.76,3.83 30.89,3.23 36.77,3.09C49.33,2.9 61.91,5.36 74.02,8.48C81.23,10.29 88.33,12.48 95.31,15.04C97.12,15.71 97.9,12.81 96.11,12.14L96.11,12.09C76.61,4.81 54.26,-1.14 33.34,0.18C20.21,1 10.19,5.65 4.81,18.09C-2.04,33.96 -2.48,56.09 9.49,69.9C14.27,75.39 21.88,78.51 28.64,80.76C39.64,84.4 51.25,85.52 62.71,86.04C64.64,86.13 64.64,83.13 62.71,83.04C46.84,82.31 28.51,80.59 15.11,71.04C0.31,60.45 1.01,35.5 7.01,20.58C9.58,14.18 12.89,9.07 19.33,6.23Z " /><path id="路径 149" fill-rule="evenodd" style="fill:#000000" transform="translate(301.9152412176786 729.7572891514575)  rotate(0 25.34114132742593 8.873825450850575)" opacity="1" d="M48.84,17.67C50.69,18.24 51.48,15.34 49.64,14.78L1.85,0.07C0,-0.5 -0.79,2.4 1.05,2.97L48.84,17.67Z " /><path id="路径 150" fill-rule="evenodd" style="fill:#000000" transform="translate(265.5164021810824 707.66040865862)  rotate(0 123.61424148739286 60.94711156063971)" opacity="1" d="M233.64 8.81C228.29 3.88 221.64 2.78 214.64 3.29C201.37 4.26 188.04 7.55 175.24 11.07L175.23 11.02C174.47 11.16 173.72 10.69 173.51 9.94C173.3 9.18 173.7 8.39 174.43 8.12C180.64 6.42 186.92 4.93 193.23 3.6C194.051 3.42719 194.88 3.24988 195.716 3.07103C204.123 1.27318 213.254 -0.679524 221.74 0.23C236.67 1.85 244.6 16.07 246.6 29.65C248.31 41.35 246.83 56.27 238.03 65.09C231.52 71.61 221.2 74.96 212.58 77.51C179.61 87.23 146.2 95.87 112.67 103.45C84.52 109.8 56.27 115.74 27.99 121.45C27.6824 121.506 27.3919 121.569 27.1135 121.63C25.8624 121.902 24.8533 122.121 23.61 121.45C20.46 119.8 17.49 115.18 15.39 112.45C4.33 98.19 -1.51 80.65 0.33 62.58C0.36 61.91 0.8 61.34 1.43 61.13C9.88 57.95 18.67 55.57 27.34 53.07C65.34 42.07 103.65 32.07 141.95 22.21C142.72 22.07 143.47 22.54 143.68 23.29C143.89 24.05 143.49 24.84 142.75 25.11C137.73 26.4 132.7 27.72 127.66 29.05C104.67 35.04 81.71 41.18 58.79 47.47C40.3 52.54 21.27 57.03 3.25 63.74C1.66 82.58 8.66 100.8 21.19 114.83C22.34 116.13 24.34 117.5 25.19 118.95C27.35 117.72 31.96 117.7 34.21 117.24C94.09 105.02 153.93 92.01 212.52 74.49C220.56 72.06 230.58 68.85 236.44 62.49C244.98 53.22 245.63 37.42 242.81 25.81C241.29 19.5 238.47 13.26 233.64 8.81Z" /><path id="路径 151" fill-rule="evenodd" style="fill:#000000" transform="translate(353.96513009733235 788.7948586633387)  rotate(0 51.471214720586204 15.926949190280197)" opacity="1" d="M16.98,25.7C11.79,25.26 6.61,24.8 1.44,24.29C-0.48,24.1 -0.47,27.1 1.44,27.29C16.51,28.78 31.61,29.98 46.75,30.9C56.68,31.49 66.66,32.04 76.61,31.8C83.98,31.63 90.61,31.15 95.42,24.74C100.23,18.33 102.27,9.38 102.94,1.44C103.1,-0.48 100.1,-0.47 99.94,1.44L99.9,1.44C99.34,8.12 97.63,15.44 94.13,21.23C89.46,28.89 82.13,28.78 74.13,28.84C55.07,28.99 35.95,27.32 16.98,25.7Z " /><path id="路径 152" fill-rule="evenodd" style="fill:#000000" transform="translate(329.53239264887725 651.7271210186232)  rotate(0 13.665717517493931 13.510225810630232)" opacity="1" d="M27.31 13.87C26.75 21.31 20.95 27.38 13.18 27C5.72 26.82 -0.18 20.63 0 13.18C0.18 5.72 6.37 -0.18 13.83 0C21.35 0 26.77 5.98 27.31 13.16C27.33 13.27 27.34 13.39 27.33 13.52C27.34 13.65 27.33 13.77 27.31 13.87Z" /><path id="路径 153" fill-rule="evenodd" style="fill:#000000" transform="translate(248.8613825451048 720.7311111111111)  rotate(0 95 1.5)" opacity="1" d="M188.5,3C189.33,3 190,2.33 190,1.5C190,0.67 189.33,0 188.5,0L1.5,0C0.67,0 0,0.67 0,1.5C0,2.33 0.67,3 1.5,3L188.5,3Z " /><path id="路径 154" fill-rule="evenodd" style="fill:#000000" transform="translate(325.6457021655651 558.1197464028959)  rotate(0 3.986338814138776 24.112558571635816)" opacity="1" d="M2.27,46.78C2.16,48.71 5.16,48.7 5.27,46.78C5.43,42.76 5.1,38.72 4.27,34.78C3.27,29.43 2.71,25.31 4.97,20.18C7.67,14.21 8.58,7.57 7.58,1.09C7.3,-0.82 4.41,-0.01 4.69,1.88L4.72,1.85C5.41,6.26 5.1,10.78 3.81,15.05C2.81,18.24 0.81,21.05 0.27,24.41C-1,31.73 2.72,39.32 2.27,46.78Z " /><path id="路径 155" fill-rule="evenodd" style="fill:#000000" transform="translate(351.862700375013 559.9388940807092)  rotate(0 3.7480895337276934 23.071175301277663)" opacity="1" d="M4.59,13.26C4.59,17.94 2.01,21.32 0.79,25.61C-1.08,32.1 0.62,39.39 3.33,45.36C4.13,47.12 6.72,45.59 5.92,43.85C3.88,39.56 2.92,34.85 3.11,30.1C3.34,25.99 5.52,22.98 6.68,19.16C8.68,12.5 6.68,7.16 4.23,1C3.52,-0.77 0.62,0 1.34,1.79C2.86,5.59 4.65,9.04 4.59,13.26Z " /><path id="路径 156" fill-rule="evenodd" style="fill:#000000" transform="translate(376.93637267682016 575.7163270712457)  rotate(0 13.962504934142316 8.007392019932695)" opacity="1" d="M27.93 14.51L27.93 1.51C27.92 0.69 27.25 0.02 26.43 0.01C18.12 0.98 9.73 0.98 1.43 0.01C-0.48 -0.24 -0.46 2.76 1.43 3.01C9.23 3.93 17.11 3.98 24.93 3.18L24.93 14.51C24.93 15.34 25.6 16.01 26.43 16.01C27.25 16.01 27.93 15.34 27.93 14.51Z" /><path id="路径 157" fill-rule="evenodd" style="fill:#FFFFFF" transform="translate(382.19588101939166 580.3177554104828)  rotate(0 8.19192861317083 3.7393874963792086)" opacity="1" d="M7.56 6.01C8.45 7.12 9.75 7.8 11.31 7.32C12.19 7 12.98 6.44 13.58 5.7C14.28 4.91 14.78 3.29 15.64 2.8C16.35 2.39 16.6 1.47 16.18 0.75C15.76 0.03 14.84 -0.21 14.13 0.2C13.7254 0.432538 13.2194 1.09532 12.6788 1.80336C11.5224 3.31806 10.2077 5.03993 9.39 3.2C8.97 2.52 8.09 2.29 7.39 2.66C7.26 2.73 6.36 3.21 6.14 3.44C6.11 3.4 6.07 3.35 6.03 3.29C5.59 2.63 4.73 2.4 4.03 2.75C3.72 2.89 3.42 3.11 3.12 3.3C3.12 3.05 3.12 2.8 3.15 2.55C3.21 0.62 0.21 0.62 0.15 2.55L0.01 2.62C0.01 2.73194 0.00873957 2.85062 0.00742532 2.97438C-0.00652355 4.28784 -0.0265353 6.17219 1.39 6.62C2.42 6.95 3.34 6.52 4.18 6.04C4.43 6.35 4.75 6.58 5.33 6.64C6.06 6.73 6.83 6.4 7.56 6.01ZM6.22268 3.54335C6.24153 3.5667 6.25096 3.57838 6.25375 3.58288L6.18424 3.49557C6.19999 3.51524 6.21266 3.53094 6.22268 3.54335ZM6.18424 3.49557L6.14001 3.44001C6.15689 3.46134 6.17156 3.47974 6.18424 3.49557Z" /><path id="路径 158" fill-rule="evenodd" style="fill:#000000" transform="translate(376.8604944551107 575.7836111111113)  rotate(0 13.964830117488532 8.81686434850809)" opacity="1" d="M0 15.45C0.02 16.27 0.68 16.93 1.5 16.95C9.81 17.86 18.19 17.86 26.5 16.95C28.39 16.72 28.42 13.72 26.5 13.95C18.69 14.81 10.82 14.86 3 14.1C3.00699 13.1193 3.01777 12.1375 3.02857 11.1552C3.06411 7.92039 3.09972 4.67931 3 1.45C2.94 -0.48 -0.06 -0.48 0 1.45C0.0933556 4.55741 0.0622074 7.67371 0.0310889 10.787C0.0155407 12.3426 0 13.8974 0 15.45Z" /><path id="路径 159" fill-rule="evenodd" style="fill:#000000" transform="translate(281.8613825451048 764.7836111111113)  rotate(0 12.778598641184544 30.729966170131945)" opacity="1" d="M23,61.01C24.35,62.4 26.47,60.27 25.13,58.89C10.82,44.19 3.68,21.76 3.03,1.45C2.97,-0.48 -0.03,-0.48 0.03,1.45L0,1.45C0.67,22.56 8.09,45.72 23,61.01Z " /><path id="路径 160" fill-rule="evenodd" style="fill:#000000" transform="translate(199.70336720439627 778.7886929909172)  rotate(0 44.580083022786766 26.171267392822415)" opacity="1" d="M67.12 0.07C67.4 -0.02 67.69 -0.02 67.97 0.06C68.07 0.08 68.16 0.12 68.25 0.17C68.84 0.46 69.28 1.08 69.13 1.8C69.1 2.08 69 2.35 68.8 2.56C66.37 7.27 65.15 12.52 65.26 17.82C65.42 32.07 76.42 41.49 88.42 47.19C89.81 47.85 89.07 49.99 87.66 49.99C77.88 49.97 68.05 50.34 58.34 50.75C48.63 51.16 38.92 52.01 29.21 52.31C22.59 52.61 16.08 50.63 10.75 46.7C0.98 39.31 -3.11 25.38 2.63 14.24C9.00158 1.84037 21.8021 2.08463 33.9567 2.31657C36.6625 2.3682 39.3363 2.41922 41.9 2.33C50.26 2.04 58.88 1.69 67.12 0.07Z" /><path id="路径 161" fill-rule="evenodd" style="fill:#FFFFFF" transform="translate(246.58594985040122 797.175436967074)  rotate(0 4.903454184951215 9.983848830700481)" opacity="1" d="M0.05,18.1C-0.39,19.98 2.5,20.78 2.94,18.9C4.31,12.96 5.79,7.09 9.52,2.14C10.68,0.6 8.08,-0.86 6.93,0.62C3.05,5.76 1.47,11.93 0.05,18.1Z " /><path id="路径 162" fill-rule="evenodd" style="fill:#FFFFFF" transform="translate(240.43236364472068 796.3297464028961)  rotate(0 4.327579569087902 10.493720499805079)" opacity="1" d="M5.88,20.23C6.76,21.95 9.35,20.43 8.48,18.71C5.66,13.19 3.78,7.23 2.91,1.09C2.64,-0.82 -0.26,-0.01 0.02,1.88C0.95,8.28 2.93,14.48 5.88,20.23Z " /><path id="路径 163" fill-rule="evenodd" style="fill:#FFFFFF" transform="translate(233.56204232265213 795.3286787708472)  rotate(0 4.925941590656748 9.825822752992735)" opacity="1" d="M0.03,17.77C-0.32,19.66 2.57,20.46 2.92,18.57C3.99,12.78 5.17,6.9 9.42,2.57C10.77,1.19 8.65,-0.94 7.3,0.45L7.3,0.4C2.68,5.16 1.2,11.4 0.03,17.77Z " /><path id="路径 164" fill-rule="evenodd" style="fill:#FFFFFF" transform="translate(229.54604983508762 795.9836111111111)  rotate(0 3.409982164582516 9.778159168398588)" opacity="1" d="M4.04,18.82C4.96,20.51 7.55,19 6.63,17.3C3.99,12.45 2.74,6.96 3.02,1.45C3.11,-0.48 0.11,-0.48 0.02,1.45L0.04,1.45C-0.24,7.49 1.14,13.5 4.04,18.82Z " /><path id="路径 165" fill-rule="evenodd" style="fill:#FFFFFF" transform="translate(223.72881407514205 795.629980695351)  rotate(0 4.494194951923532 7.026820116189867)" opacity="1" d="M0.01,12.62C-0.22,14.54 2.78,14.52 3.01,12.62C3.51,8.62 6.51,5.4 8.72,2.18C9.82,0.59 7.22,-0.91 6.13,0.67C3.51,4.48 0.59,7.89 0.01,12.62Z " /><path id="路径 166" fill-rule="evenodd" style="fill:#000000" transform="translate(166.94937416908147 772.7068795646661)  rotate(0 18.901811696071945 11.070541486160153)" opacity="1" d="M36.01,22.02C37.79,22.75 38.57,19.85 36.81,19.12C24.57,14.21 12.94,7.89 2.17,0.27C0.6,-0.85 -0.9,1.75 0.65,2.87L0.65,2.82C11.65,10.58 23.52,17.02 36.01,22.02Z " /><path id="路径 167" fill-rule="evenodd" style="fill:#000000" transform="translate(451.81509834607505 775.4899098142154)  rotate(0 22.89812374853875 14.587995702992202)" opacity="1" d="M0.79,26.44C-0.98,27.2 0.55,29.79 2.31,29.04C17.97,22.55 32.48,13.6 45.31,2.51C46.77,1.24 44.64,-0.88 43.19,0.39L43.21,0.39C30.21,11.66 16.55,19.72 0.79,26.44Z " /><path  id="路径 168" style="stroke:#000000; stroke-width:2; stroke-opacity:1; stroke-dasharray:0 0" transform="translate(210.35138254510457 240.2311111111111)  rotate(0 0.18500000000074124 2.9850000000025148)" d="M0,0L0,3.43C0,4.29 0.12,5.15 0.37,5.97 " /><path  id="路径 169" style="stroke:#000000; stroke-width:2; stroke-opacity:1; stroke-dasharray:13.514 0" transform="translate(213.01138254510488 250.0211111111111)  rotate(0 25.559999999999945 1.2900000454973792)" d="M0,0C1.67,1.65 3.93,2.58 6.28,2.58L51.12,2.58 " /><path  id="路径 170" style="stroke:#000000; stroke-width:2; stroke-opacity:1; stroke-dasharray:0 0" transform="translate(266.38138254510477 252.6011111111111)  rotate(0 3 0)" d="M6,0Z M0,0L6,0 " /><path  id="路径 171" style="stroke:#000000; stroke-width:2; stroke-opacity:1; stroke-dasharray:0 0" transform="translate(210.3513825451048 139.26111111111106)  rotate(0 0 3)" d="M0,0L0,6 " /><path  id="路径 172" style="stroke:#000000; stroke-width:2; stroke-opacity:1; stroke-dasharray:11.33 0" transform="translate(210.3513825451048 149.03111111111116)  rotate(0 0 21.659999999999997)" d="M0,0L0,43.32 " /><path  id="路径 173" style="stroke:#000000; stroke-width:2; stroke-opacity:1; stroke-dasharray:0 0" transform="translate(210.3513825451048 194.2311111111111)  rotate(0 0 3)" d="M0,0L0,6 " /><path  id="路径 174" style="stroke:#000000; stroke-width:2; stroke-opacity:1; stroke-dasharray:0 0" transform="translate(330.3313825451048 39.73111111111109)  rotate(0 3 0)" d="M6,0Z M0,0L6,0 " /><path  id="路径 175" style="stroke:#000000; stroke-width:2; stroke-opacity:1; stroke-dasharray:12.314 0" transform="translate(210.3613825451048 39.73111111111109)  rotate(0 57.92999999999995 17.275000000000006)" d="M115.86,0L11,0C4.93,0 0,4.93 0,11L0,34.55 " /><path  id="路径 176" style="stroke:#000000; stroke-width:2; stroke-opacity:1; stroke-dasharray:0 0" transform="translate(210.3513825451048 76.3411111111111)  rotate(0 0 3)" d="M0,6Z M0,0L0,6 " /><path  id="路径 177" style="stroke:#000000; stroke-width:2; stroke-opacity:1; stroke-dasharray:0 0" transform="translate(468.8613825451048 113.73111111111109)  rotate(0 0 3)" d="M0,6Z M0,0L0,6 " /><path  id="路径 178" style="stroke:#000000; stroke-width:2; stroke-opacity:1; stroke-dasharray:12.174 0" transform="translate(438.39138254510453 39.73111111111109)  rotate(0 15.235000000000014 34.97)" d="M30.47,69.94L30.47,11.75C30.47,5.26 25.21,0 18.72,0L0,0 " /><path  id="路径 179" style="stroke:#000000; stroke-width:2; stroke-opacity:1; stroke-dasharray:0 0" transform="translate(430.3613825451048 39.73111111111109)  rotate(0 3 0)" d="M6,0Z M0,0L6,0 " /></g></g></svg>